<svg xmlns="http://www.w3.org/2000/svg" xmlns:xlink="http://www.w3.org/1999/xlink" width="500" zoomAndPan="magnify" viewBox="0 0 375 374.999991" height="500" preserveAspectRatio="xMidYMid meet" version="1.0"><defs><g/><linearGradient x1="0" gradientTransform="matrix(0.75, 0, 0, 0.75, 0.0000045, 0)" y1="250" x2="499.999979" gradientUnits="userSpaceOnUse" y2="250" id="174ed9596a"><stop stop-opacity="1" stop-color="rgb(0%, 0%, 0%)" offset="0"/><stop stop-opacity="1" stop-color="rgb(0.0808716%, 0.0778198%, 0.312805%)" offset="0.00390625"/><stop stop-opacity="1" stop-color="rgb(0.161743%, 0.15564%, 0.627136%)" offset="0.0078125"/><stop stop-opacity="1" stop-color="rgb(0.242615%, 0.233459%, 0.941467%)" offset="0.0117187"/><stop stop-opacity="1" stop-color="rgb(0.323486%, 0.311279%, 1.255798%)" offset="0.015625"/><stop stop-opacity="1" stop-color="rgb(0.404358%, 0.389099%, 1.568604%)" offset="0.0195312"/><stop stop-opacity="1" stop-color="rgb(0.486755%, 0.468445%, 1.882935%)" offset="0.0234375"/><stop stop-opacity="1" stop-color="rgb(0.567627%, 0.546265%, 2.197266%)" offset="0.0273438"/><stop stop-opacity="1" stop-color="rgb(0.648499%, 0.624084%, 2.511597%)" offset="0.03125"/><stop stop-opacity="1" stop-color="rgb(0.72937%, 0.701904%, 2.825928%)" offset="0.0351562"/><stop stop-opacity="1" stop-color="rgb(0.811768%, 0.779724%, 3.140259%)" offset="0.0390625"/><stop stop-opacity="1" stop-color="rgb(0.892639%, 0.857544%, 3.453064%)" offset="0.0429687"/><stop stop-opacity="1" stop-color="rgb(0.973511%, 0.93689%, 3.767395%)" offset="0.046875"/><stop stop-opacity="1" stop-color="rgb(1.054382%, 1.014709%, 4.081726%)" offset="0.0507812"/><stop stop-opacity="1" stop-color="rgb(1.13678%, 1.092529%, 4.396057%)" offset="0.0546875"/><stop stop-opacity="1" stop-color="rgb(1.217651%, 1.170349%, 4.710388%)" offset="0.0585938"/><stop stop-opacity="1" stop-color="rgb(1.298523%, 1.249695%, 5.024719%)" offset="0.0625"/><stop stop-opacity="1" stop-color="rgb(1.379395%, 1.327515%, 5.337524%)" offset="0.0664062"/><stop stop-opacity="1" stop-color="rgb(1.461792%, 1.405334%, 5.651855%)" offset="0.0703125"/><stop stop-opacity="1" stop-color="rgb(1.542664%, 1.483154%, 5.966187%)" offset="0.0742187"/><stop stop-opacity="1" stop-color="rgb(1.623535%, 1.560974%, 6.280518%)" offset="0.078125"/><stop stop-opacity="1" stop-color="rgb(1.704407%, 1.638794%, 6.594849%)" offset="0.0820312"/><stop stop-opacity="1" stop-color="rgb(1.786804%, 1.71814%, 6.90918%)" offset="0.0859375"/><stop stop-opacity="1" stop-color="rgb(1.867676%, 1.795959%, 7.221985%)" offset="0.0898437"/><stop stop-opacity="1" stop-color="rgb(1.948547%, 1.873779%, 7.536316%)" offset="0.09375"/><stop stop-opacity="1" stop-color="rgb(2.029419%, 1.951599%, 7.850647%)" offset="0.0976562"/><stop stop-opacity="1" stop-color="rgb(2.111816%, 2.030945%, 8.164978%)" offset="0.101562"/><stop stop-opacity="1" stop-color="rgb(2.192688%, 2.108765%, 8.479309%)" offset="0.105469"/><stop stop-opacity="1" stop-color="rgb(2.27356%, 2.186584%, 8.79364%)" offset="0.109375"/><stop stop-opacity="1" stop-color="rgb(2.354431%, 2.264404%, 9.106445%)" offset="0.113281"/><stop stop-opacity="1" stop-color="rgb(2.436829%, 2.342224%, 9.420776%)" offset="0.117188"/><stop stop-opacity="1" stop-color="rgb(2.5177%, 2.420044%, 9.735107%)" offset="0.121094"/><stop stop-opacity="1" stop-color="rgb(2.598572%, 2.49939%, 10.049438%)" offset="0.125"/><stop stop-opacity="1" stop-color="rgb(2.679443%, 2.577209%, 10.36377%)" offset="0.128906"/><stop stop-opacity="1" stop-color="rgb(2.761841%, 2.655029%, 10.678101%)" offset="0.132812"/><stop stop-opacity="1" stop-color="rgb(2.842712%, 2.732849%, 10.990906%)" offset="0.136719"/><stop stop-opacity="1" stop-color="rgb(2.923584%, 2.812195%, 11.305237%)" offset="0.140625"/><stop stop-opacity="1" stop-color="rgb(3.004456%, 2.890015%, 11.619568%)" offset="0.144531"/><stop stop-opacity="1" stop-color="rgb(3.086853%, 2.967834%, 11.933899%)" offset="0.148437"/><stop stop-opacity="1" stop-color="rgb(3.167725%, 3.045654%, 12.246704%)" offset="0.152344"/><stop stop-opacity="1" stop-color="rgb(3.248596%, 3.123474%, 12.561035%)" offset="0.15625"/><stop stop-opacity="1" stop-color="rgb(3.329468%, 3.201294%, 12.875366%)" offset="0.160156"/><stop stop-opacity="1" stop-color="rgb(3.411865%, 3.28064%, 13.189697%)" offset="0.164062"/><stop stop-opacity="1" stop-color="rgb(3.492737%, 3.358459%, 13.504028%)" offset="0.167969"/><stop stop-opacity="1" stop-color="rgb(3.573608%, 3.436279%, 13.818359%)" offset="0.171875"/><stop stop-opacity="1" stop-color="rgb(3.65448%, 3.514099%, 14.131165%)" offset="0.175781"/><stop stop-opacity="1" stop-color="rgb(3.736877%, 3.593445%, 14.445496%)" offset="0.179687"/><stop stop-opacity="1" stop-color="rgb(3.817749%, 3.671265%, 14.759827%)" offset="0.183594"/><stop stop-opacity="1" stop-color="rgb(3.898621%, 3.749084%, 15.074158%)" offset="0.1875"/><stop stop-opacity="1" stop-color="rgb(3.979492%, 3.826904%, 15.388489%)" offset="0.191406"/><stop stop-opacity="1" stop-color="rgb(4.06189%, 3.904724%, 15.70282%)" offset="0.195312"/><stop stop-opacity="1" stop-color="rgb(4.142761%, 3.982544%, 16.015625%)" offset="0.199219"/><stop stop-opacity="1" stop-color="rgb(4.223633%, 4.06189%, 16.329956%)" offset="0.203125"/><stop stop-opacity="1" stop-color="rgb(4.304504%, 4.139709%, 16.644287%)" offset="0.207031"/><stop stop-opacity="1" stop-color="rgb(4.386902%, 4.217529%, 16.958618%)" offset="0.210938"/><stop stop-opacity="1" stop-color="rgb(4.467773%, 4.295349%, 17.272949%)" offset="0.214844"/><stop stop-opacity="1" stop-color="rgb(4.548645%, 4.374695%, 17.58728%)" offset="0.21875"/><stop stop-opacity="1" stop-color="rgb(4.629517%, 4.452515%, 17.900085%)" offset="0.222656"/><stop stop-opacity="1" stop-color="rgb(4.711914%, 4.530334%, 18.214417%)" offset="0.226562"/><stop stop-opacity="1" stop-color="rgb(4.792786%, 4.608154%, 18.528748%)" offset="0.230469"/><stop stop-opacity="1" stop-color="rgb(4.873657%, 4.685974%, 18.843079%)" offset="0.234375"/><stop stop-opacity="1" stop-color="rgb(4.954529%, 4.763794%, 19.15741%)" offset="0.238281"/><stop stop-opacity="1" stop-color="rgb(5.036926%, 4.84314%, 19.471741%)" offset="0.242188"/><stop stop-opacity="1" stop-color="rgb(5.117798%, 4.920959%, 19.784546%)" offset="0.246094"/><stop stop-opacity="1" stop-color="rgb(5.198669%, 4.998779%, 20.098877%)" offset="0.25"/><stop stop-opacity="1" stop-color="rgb(5.279541%, 5.076599%, 20.413208%)" offset="0.253906"/><stop stop-opacity="1" stop-color="rgb(5.361938%, 5.155945%, 20.727539%)" offset="0.257812"/><stop stop-opacity="1" stop-color="rgb(5.44281%, 5.233765%, 21.04187%)" offset="0.261719"/><stop stop-opacity="1" stop-color="rgb(5.523682%, 5.311584%, 21.356201%)" offset="0.265625"/><stop stop-opacity="1" stop-color="rgb(5.604553%, 5.389404%, 21.669006%)" offset="0.269531"/><stop stop-opacity="1" stop-color="rgb(5.686951%, 5.467224%, 21.983337%)" offset="0.273437"/><stop stop-opacity="1" stop-color="rgb(5.767822%, 5.545044%, 22.297668%)" offset="0.277344"/><stop stop-opacity="1" stop-color="rgb(5.848694%, 5.62439%, 22.612%)" offset="0.28125"/><stop stop-opacity="1" stop-color="rgb(5.929565%, 5.702209%, 22.924805%)" offset="0.285156"/><stop stop-opacity="1" stop-color="rgb(6.011963%, 5.780029%, 23.239136%)" offset="0.289062"/><stop stop-opacity="1" stop-color="rgb(6.092834%, 5.857849%, 23.553467%)" offset="0.292969"/><stop stop-opacity="1" stop-color="rgb(6.173706%, 5.937195%, 23.867798%)" offset="0.296875"/><stop stop-opacity="1" stop-color="rgb(6.254578%, 6.015015%, 24.182129%)" offset="0.300781"/><stop stop-opacity="1" stop-color="rgb(6.336975%, 6.092834%, 24.49646%)" offset="0.304687"/><stop stop-opacity="1" stop-color="rgb(6.417847%, 6.170654%, 24.809265%)" offset="0.308594"/><stop stop-opacity="1" stop-color="rgb(6.498718%, 6.248474%, 25.123596%)" offset="0.3125"/><stop stop-opacity="1" stop-color="rgb(6.57959%, 6.326294%, 25.437927%)" offset="0.316406"/><stop stop-opacity="1" stop-color="rgb(6.661987%, 6.40564%, 25.752258%)" offset="0.320312"/><stop stop-opacity="1" stop-color="rgb(6.742859%, 6.483459%, 26.066589%)" offset="0.324219"/><stop stop-opacity="1" stop-color="rgb(6.82373%, 6.561279%, 26.38092%)" offset="0.328125"/><stop stop-opacity="1" stop-color="rgb(6.904602%, 6.639099%, 26.693726%)" offset="0.332031"/><stop stop-opacity="1" stop-color="rgb(6.987%, 6.718445%, 27.008057%)" offset="0.335937"/><stop stop-opacity="1" stop-color="rgb(7.067871%, 6.796265%, 27.322388%)" offset="0.339844"/><stop stop-opacity="1" stop-color="rgb(7.148743%, 6.874084%, 27.636719%)" offset="0.34375"/><stop stop-opacity="1" stop-color="rgb(7.229614%, 6.951904%, 27.95105%)" offset="0.347656"/><stop stop-opacity="1" stop-color="rgb(7.312012%, 7.029724%, 28.265381%)" offset="0.351562"/><stop stop-opacity="1" stop-color="rgb(7.392883%, 7.107544%, 28.578186%)" offset="0.355469"/><stop stop-opacity="1" stop-color="rgb(7.473755%, 7.18689%, 28.892517%)" offset="0.359375"/><stop stop-opacity="1" stop-color="rgb(7.554626%, 7.264709%, 29.206848%)" offset="0.363281"/><stop stop-opacity="1" stop-color="rgb(7.637024%, 7.342529%, 29.521179%)" offset="0.367187"/><stop stop-opacity="1" stop-color="rgb(7.717896%, 7.420349%, 29.83551%)" offset="0.371094"/><stop stop-opacity="1" stop-color="rgb(7.798767%, 7.499695%, 30.149841%)" offset="0.375"/><stop stop-opacity="1" stop-color="rgb(7.879639%, 7.577515%, 30.462646%)" offset="0.378906"/><stop stop-opacity="1" stop-color="rgb(7.962036%, 7.655334%, 30.776978%)" offset="0.382812"/><stop stop-opacity="1" stop-color="rgb(8.042908%, 7.733154%, 31.091309%)" offset="0.386719"/><stop stop-opacity="1" stop-color="rgb(8.123779%, 7.810974%, 31.40564%)" offset="0.390625"/><stop stop-opacity="1" stop-color="rgb(8.204651%, 7.888794%, 31.719971%)" offset="0.394531"/><stop stop-opacity="1" stop-color="rgb(8.287048%, 7.96814%, 32.034302%)" offset="0.398438"/><stop stop-opacity="1" stop-color="rgb(8.36792%, 8.045959%, 32.347107%)" offset="0.402344"/><stop stop-opacity="1" stop-color="rgb(8.448792%, 8.123779%, 32.661438%)" offset="0.40625"/><stop stop-opacity="1" stop-color="rgb(8.529663%, 8.201599%, 32.975769%)" offset="0.410156"/><stop stop-opacity="1" stop-color="rgb(8.612061%, 8.280945%, 33.2901%)" offset="0.414062"/><stop stop-opacity="1" stop-color="rgb(8.692932%, 8.358765%, 33.602905%)" offset="0.417969"/><stop stop-opacity="1" stop-color="rgb(8.773804%, 8.436584%, 33.917236%)" offset="0.421875"/><stop stop-opacity="1" stop-color="rgb(8.854675%, 8.514404%, 34.231567%)" offset="0.425781"/><stop stop-opacity="1" stop-color="rgb(8.937073%, 8.592224%, 34.545898%)" offset="0.429688"/><stop stop-opacity="1" stop-color="rgb(9.017944%, 8.670044%, 34.860229%)" offset="0.433594"/><stop stop-opacity="1" stop-color="rgb(9.098816%, 8.74939%, 35.174561%)" offset="0.4375"/><stop stop-opacity="1" stop-color="rgb(9.179688%, 8.827209%, 35.487366%)" offset="0.441406"/><stop stop-opacity="1" stop-color="rgb(9.262085%, 8.905029%, 35.801697%)" offset="0.445312"/><stop stop-opacity="1" stop-color="rgb(9.342957%, 8.982849%, 36.116028%)" offset="0.449219"/><stop stop-opacity="1" stop-color="rgb(9.423828%, 9.062195%, 36.430359%)" offset="0.453125"/><stop stop-opacity="1" stop-color="rgb(9.5047%, 9.140015%, 36.74469%)" offset="0.457031"/><stop stop-opacity="1" stop-color="rgb(9.587097%, 9.217834%, 37.059021%)" offset="0.460938"/><stop stop-opacity="1" stop-color="rgb(9.667969%, 9.295654%, 37.371826%)" offset="0.464844"/><stop stop-opacity="1" stop-color="rgb(9.74884%, 9.373474%, 37.686157%)" offset="0.46875"/><stop stop-opacity="1" stop-color="rgb(9.829712%, 9.451294%, 38.000488%)" offset="0.472656"/><stop stop-opacity="1" stop-color="rgb(9.912109%, 9.53064%, 38.314819%)" offset="0.476562"/><stop stop-opacity="1" stop-color="rgb(9.992981%, 9.608459%, 38.62915%)" offset="0.480469"/><stop stop-opacity="1" stop-color="rgb(10.073853%, 9.686279%, 38.943481%)" offset="0.484375"/><stop stop-opacity="1" stop-color="rgb(10.154724%, 9.764099%, 39.256287%)" offset="0.488281"/><stop stop-opacity="1" stop-color="rgb(10.237122%, 9.843445%, 39.570618%)" offset="0.492188"/><stop stop-opacity="1" stop-color="rgb(10.317993%, 9.921265%, 39.884949%)" offset="0.496094"/><stop stop-opacity="1" stop-color="rgb(10.398865%, 9.999084%, 40.19928%)" offset="0.5"/><stop stop-opacity="1" stop-color="rgb(10.479736%, 10.076904%, 40.513611%)" offset="0.503906"/><stop stop-opacity="1" stop-color="rgb(10.562134%, 10.154724%, 40.827942%)" offset="0.507812"/><stop stop-opacity="1" stop-color="rgb(10.643005%, 10.232544%, 41.140747%)" offset="0.511719"/><stop stop-opacity="1" stop-color="rgb(10.723877%, 10.31189%, 41.455078%)" offset="0.515625"/><stop stop-opacity="1" stop-color="rgb(10.804749%, 10.389709%, 41.769409%)" offset="0.519531"/><stop stop-opacity="1" stop-color="rgb(10.887146%, 10.467529%, 42.08374%)" offset="0.523437"/><stop stop-opacity="1" stop-color="rgb(10.968018%, 10.545349%, 42.398071%)" offset="0.527344"/><stop stop-opacity="1" stop-color="rgb(11.048889%, 10.624695%, 42.712402%)" offset="0.53125"/><stop stop-opacity="1" stop-color="rgb(11.129761%, 10.702515%, 43.025208%)" offset="0.535156"/><stop stop-opacity="1" stop-color="rgb(11.212158%, 10.780334%, 43.339539%)" offset="0.539062"/><stop stop-opacity="1" stop-color="rgb(11.29303%, 10.858154%, 43.65387%)" offset="0.542969"/><stop stop-opacity="1" stop-color="rgb(11.373901%, 10.935974%, 43.968201%)" offset="0.546875"/><stop stop-opacity="1" stop-color="rgb(11.454773%, 11.013794%, 44.282532%)" offset="0.550781"/><stop stop-opacity="1" stop-color="rgb(11.53717%, 11.09314%, 44.596863%)" offset="0.554687"/><stop stop-opacity="1" stop-color="rgb(11.618042%, 11.170959%, 44.909668%)" offset="0.558594"/><stop stop-opacity="1" stop-color="rgb(11.698914%, 11.248779%, 45.223999%)" offset="0.5625"/><stop stop-opacity="1" stop-color="rgb(11.779785%, 11.326599%, 45.53833%)" offset="0.566406"/><stop stop-opacity="1" stop-color="rgb(11.862183%, 11.405945%, 45.852661%)" offset="0.570312"/><stop stop-opacity="1" stop-color="rgb(11.943054%, 11.483765%, 46.165466%)" offset="0.574219"/><stop stop-opacity="1" stop-color="rgb(12.023926%, 11.561584%, 46.479797%)" offset="0.578125"/><stop stop-opacity="1" stop-color="rgb(12.104797%, 11.639404%, 46.794128%)" offset="0.582031"/><stop stop-opacity="1" stop-color="rgb(12.187195%, 11.717224%, 47.108459%)" offset="0.585937"/><stop stop-opacity="1" stop-color="rgb(12.268066%, 11.795044%, 47.422791%)" offset="0.589844"/><stop stop-opacity="1" stop-color="rgb(12.348938%, 11.87439%, 47.737122%)" offset="0.59375"/><stop stop-opacity="1" stop-color="rgb(12.42981%, 11.952209%, 48.049927%)" offset="0.597656"/><stop stop-opacity="1" stop-color="rgb(12.512207%, 12.030029%, 48.364258%)" offset="0.601562"/><stop stop-opacity="1" stop-color="rgb(12.593079%, 12.107849%, 48.678589%)" offset="0.605469"/><stop stop-opacity="1" stop-color="rgb(12.67395%, 12.187195%, 48.99292%)" offset="0.609375"/><stop stop-opacity="1" stop-color="rgb(12.754822%, 12.265015%, 49.307251%)" offset="0.613281"/><stop stop-opacity="1" stop-color="rgb(12.837219%, 12.342834%, 49.621582%)" offset="0.617187"/><stop stop-opacity="1" stop-color="rgb(12.918091%, 12.420654%, 49.934387%)" offset="0.621094"/><stop stop-opacity="1" stop-color="rgb(12.998962%, 12.498474%, 50.248718%)" offset="0.625"/><stop stop-opacity="1" stop-color="rgb(13.079834%, 12.576294%, 50.563049%)" offset="0.628906"/><stop stop-opacity="1" stop-color="rgb(13.162231%, 12.65564%, 50.87738%)" offset="0.632812"/><stop stop-opacity="1" stop-color="rgb(13.243103%, 12.733459%, 51.191711%)" offset="0.636719"/><stop stop-opacity="1" stop-color="rgb(13.323975%, 12.811279%, 51.506042%)" offset="0.640625"/><stop stop-opacity="1" stop-color="rgb(13.404846%, 12.889099%, 51.818848%)" offset="0.644531"/><stop stop-opacity="1" stop-color="rgb(13.487244%, 12.968445%, 52.133179%)" offset="0.648437"/><stop stop-opacity="1" stop-color="rgb(13.568115%, 13.046265%, 52.44751%)" offset="0.652344"/><stop stop-opacity="1" stop-color="rgb(13.648987%, 13.124084%, 52.761841%)" offset="0.65625"/><stop stop-opacity="1" stop-color="rgb(13.729858%, 13.201904%, 53.076172%)" offset="0.660156"/><stop stop-opacity="1" stop-color="rgb(13.812256%, 13.279724%, 53.390503%)" offset="0.664062"/><stop stop-opacity="1" stop-color="rgb(13.893127%, 13.357544%, 53.703308%)" offset="0.667969"/><stop stop-opacity="1" stop-color="rgb(13.973999%, 13.43689%, 54.017639%)" offset="0.671875"/><stop stop-opacity="1" stop-color="rgb(14.054871%, 13.514709%, 54.33197%)" offset="0.675781"/><stop stop-opacity="1" stop-color="rgb(14.137268%, 13.592529%, 54.646301%)" offset="0.679687"/><stop stop-opacity="1" stop-color="rgb(14.21814%, 13.670349%, 54.960632%)" offset="0.683594"/><stop stop-opacity="1" stop-color="rgb(14.299011%, 13.749695%, 55.274963%)" offset="0.6875"/><stop stop-opacity="1" stop-color="rgb(14.379883%, 13.827515%, 55.587769%)" offset="0.691406"/><stop stop-opacity="1" stop-color="rgb(14.46228%, 13.905334%, 55.9021%)" offset="0.695312"/><stop stop-opacity="1" stop-color="rgb(14.543152%, 13.983154%, 56.216431%)" offset="0.699219"/><stop stop-opacity="1" stop-color="rgb(14.624023%, 14.060974%, 56.530762%)" offset="0.703125"/><stop stop-opacity="1" stop-color="rgb(14.704895%, 14.138794%, 56.843567%)" offset="0.707031"/><stop stop-opacity="1" stop-color="rgb(14.787292%, 14.21814%, 57.157898%)" offset="0.710937"/><stop stop-opacity="1" stop-color="rgb(14.868164%, 14.295959%, 57.472229%)" offset="0.714844"/><stop stop-opacity="1" stop-color="rgb(14.949036%, 14.373779%, 57.78656%)" offset="0.71875"/><stop stop-opacity="1" stop-color="rgb(15.029907%, 14.451599%, 58.100891%)" offset="0.722656"/><stop stop-opacity="1" stop-color="rgb(15.112305%, 14.530945%, 58.415222%)" offset="0.726562"/><stop stop-opacity="1" stop-color="rgb(15.193176%, 14.608765%, 58.728027%)" offset="0.730469"/><stop stop-opacity="1" stop-color="rgb(15.274048%, 14.686584%, 59.042358%)" offset="0.734375"/><stop stop-opacity="1" stop-color="rgb(15.354919%, 14.764404%, 59.356689%)" offset="0.738281"/><stop stop-opacity="1" stop-color="rgb(15.437317%, 14.842224%, 59.671021%)" offset="0.742187"/><stop stop-opacity="1" stop-color="rgb(15.518188%, 14.920044%, 59.985352%)" offset="0.746094"/><stop stop-opacity="1" stop-color="rgb(15.59906%, 14.99939%, 60.299683%)" offset="0.75"/><stop stop-opacity="1" stop-color="rgb(15.679932%, 15.077209%, 60.612488%)" offset="0.753906"/><stop stop-opacity="1" stop-color="rgb(15.762329%, 15.155029%, 60.926819%)" offset="0.757812"/><stop stop-opacity="1" stop-color="rgb(15.843201%, 15.232849%, 61.24115%)" offset="0.761719"/><stop stop-opacity="1" stop-color="rgb(15.924072%, 15.312195%, 61.555481%)" offset="0.765625"/><stop stop-opacity="1" stop-color="rgb(16.004944%, 15.390015%, 61.869812%)" offset="0.769531"/><stop stop-opacity="1" stop-color="rgb(16.087341%, 15.467834%, 62.184143%)" offset="0.773438"/><stop stop-opacity="1" stop-color="rgb(16.168213%, 15.545654%, 62.496948%)" offset="0.777344"/><stop stop-opacity="1" stop-color="rgb(16.249084%, 15.623474%, 62.811279%)" offset="0.78125"/><stop stop-opacity="1" stop-color="rgb(16.329956%, 15.701294%, 63.12561%)" offset="0.785156"/><stop stop-opacity="1" stop-color="rgb(16.412354%, 15.78064%, 63.439941%)" offset="0.789062"/><stop stop-opacity="1" stop-color="rgb(16.493225%, 15.858459%, 63.754272%)" offset="0.792969"/><stop stop-opacity="1" stop-color="rgb(16.574097%, 15.936279%, 64.068604%)" offset="0.796875"/><stop stop-opacity="1" stop-color="rgb(16.654968%, 16.014099%, 64.381409%)" offset="0.800781"/><stop stop-opacity="1" stop-color="rgb(16.737366%, 16.093445%, 64.69574%)" offset="0.804688"/><stop stop-opacity="1" stop-color="rgb(16.818237%, 16.171265%, 65.010071%)" offset="0.808594"/><stop stop-opacity="1" stop-color="rgb(16.899109%, 16.249084%, 65.324402%)" offset="0.8125"/><stop stop-opacity="1" stop-color="rgb(16.97998%, 16.326904%, 65.638733%)" offset="0.816406"/><stop stop-opacity="1" stop-color="rgb(17.062378%, 16.404724%, 65.953064%)" offset="0.820312"/><stop stop-opacity="1" stop-color="rgb(17.14325%, 16.482544%, 66.265869%)" offset="0.824219"/><stop stop-opacity="1" stop-color="rgb(17.224121%, 16.56189%, 66.5802%)" offset="0.828125"/><stop stop-opacity="1" stop-color="rgb(17.304993%, 16.639709%, 66.894531%)" offset="0.832031"/><stop stop-opacity="1" stop-color="rgb(17.38739%, 16.717529%, 67.208862%)" offset="0.835938"/><stop stop-opacity="1" stop-color="rgb(17.468262%, 16.795349%, 67.521667%)" offset="0.839844"/><stop stop-opacity="1" stop-color="rgb(17.549133%, 16.874695%, 67.835999%)" offset="0.84375"/><stop stop-opacity="1" stop-color="rgb(17.630005%, 16.952515%, 68.15033%)" offset="0.847656"/><stop stop-opacity="1" stop-color="rgb(17.712402%, 17.030334%, 68.464661%)" offset="0.851562"/><stop stop-opacity="1" stop-color="rgb(17.793274%, 17.108154%, 68.778992%)" offset="0.855469"/><stop stop-opacity="1" stop-color="rgb(17.874146%, 17.185974%, 69.093323%)" offset="0.859375"/><stop stop-opacity="1" stop-color="rgb(17.955017%, 17.263794%, 69.406128%)" offset="0.863281"/><stop stop-opacity="1" stop-color="rgb(18.037415%, 17.34314%, 69.720459%)" offset="0.867188"/><stop stop-opacity="1" stop-color="rgb(18.118286%, 17.420959%, 70.03479%)" offset="0.871094"/><stop stop-opacity="1" stop-color="rgb(18.199158%, 17.498779%, 70.349121%)" offset="0.875"/><stop stop-opacity="1" stop-color="rgb(18.280029%, 17.576599%, 70.663452%)" offset="0.878906"/><stop stop-opacity="1" stop-color="rgb(18.362427%, 17.655945%, 70.977783%)" offset="0.882812"/><stop stop-opacity="1" stop-color="rgb(18.443298%, 17.733765%, 71.290588%)" offset="0.886719"/><stop stop-opacity="1" stop-color="rgb(18.52417%, 17.811584%, 71.604919%)" offset="0.890625"/><stop stop-opacity="1" stop-color="rgb(18.605042%, 17.889404%, 71.91925%)" offset="0.894531"/><stop stop-opacity="1" stop-color="rgb(18.687439%, 17.967224%, 72.233582%)" offset="0.898438"/><stop stop-opacity="1" stop-color="rgb(18.768311%, 18.045044%, 72.547913%)" offset="0.902344"/><stop stop-opacity="1" stop-color="rgb(18.849182%, 18.12439%, 72.862244%)" offset="0.90625"/><stop stop-opacity="1" stop-color="rgb(18.930054%, 18.202209%, 73.175049%)" offset="0.910156"/><stop stop-opacity="1" stop-color="rgb(19.012451%, 18.280029%, 73.48938%)" offset="0.914062"/><stop stop-opacity="1" stop-color="rgb(19.093323%, 18.357849%, 73.803711%)" offset="0.917969"/><stop stop-opacity="1" stop-color="rgb(19.174194%, 18.437195%, 74.118042%)" offset="0.921875"/><stop stop-opacity="1" stop-color="rgb(19.255066%, 18.515015%, 74.432373%)" offset="0.925781"/><stop stop-opacity="1" stop-color="rgb(19.337463%, 18.592834%, 74.746704%)" offset="0.929688"/><stop stop-opacity="1" stop-color="rgb(19.418335%, 18.670654%, 75.059509%)" offset="0.933594"/><stop stop-opacity="1" stop-color="rgb(19.499207%, 18.748474%, 75.37384%)" offset="0.9375"/><stop stop-opacity="1" stop-color="rgb(19.580078%, 18.826294%, 75.688171%)" offset="0.941406"/><stop stop-opacity="1" stop-color="rgb(19.662476%, 18.90564%, 76.002502%)" offset="0.945312"/><stop stop-opacity="1" stop-color="rgb(19.743347%, 18.983459%, 76.316833%)" offset="0.949219"/><stop stop-opacity="1" stop-color="rgb(19.824219%, 19.061279%, 76.631165%)" offset="0.953125"/><stop stop-opacity="1" stop-color="rgb(19.90509%, 19.139099%, 76.94397%)" offset="0.957031"/><stop stop-opacity="1" stop-color="rgb(19.987488%, 19.218445%, 77.258301%)" offset="0.960938"/><stop stop-opacity="1" stop-color="rgb(20.068359%, 19.296265%, 77.572632%)" offset="0.964844"/><stop stop-opacity="1" stop-color="rgb(20.149231%, 19.374084%, 77.886963%)" offset="0.96875"/><stop stop-opacity="1" stop-color="rgb(20.230103%, 19.451904%, 78.199768%)" offset="0.972656"/><stop stop-opacity="1" stop-color="rgb(20.310974%, 19.529724%, 78.514099%)" offset="0.976562"/><stop stop-opacity="1" stop-color="rgb(20.391846%, 19.607544%, 78.82843%)" offset="0.980469"/><stop stop-opacity="1" stop-color="rgb(20.474243%, 19.68689%, 79.142761%)" offset="0.984375"/><stop stop-opacity="1" stop-color="rgb(20.555115%, 19.764709%, 79.457092%)" offset="0.988281"/><stop stop-opacity="1" stop-color="rgb(20.635986%, 19.842529%, 79.771423%)" offset="0.992188"/><stop stop-opacity="1" stop-color="rgb(20.716858%, 19.920349%, 80.084229%)" offset="0.996094"/><stop stop-opacity="1" stop-color="rgb(20.799255%, 19.999695%, 80.39856%)" offset="1"/></linearGradient><clipPath id="8f272ca466"><path d="M 110.484375 93 L 144 93 L 144 103 L 110.484375 103 Z M 110.484375 93 " clip-rule="nonzero"/></clipPath><clipPath id="a10cdf9e27"><path d="M 166 13.207031 L 178 13.207031 L 178 59 L 166 59 Z M 166 13.207031 " clip-rule="nonzero"/></clipPath><clipPath id="f6c251ba65"><path d="M 218 68 L 255.984375 68 L 255.984375 79 L 218 79 Z M 218 68 " clip-rule="nonzero"/></clipPath><clipPath id="619d1ed121"><path d="M 181 190 L 185 190 L 185 266.707031 L 181 266.707031 Z M 181 190 " clip-rule="nonzero"/></clipPath><clipPath id="7a3e48f93b"><path d="M 56.03125 280.207031 L 59.417969 280.207031 L 59.417969 283.597656 L 56.03125 283.597656 Z M 56.03125 280.207031 " clip-rule="nonzero"/></clipPath><clipPath id="4536731d21"><path d="M 57.722656 280.207031 C 56.789062 280.207031 56.03125 280.964844 56.03125 281.902344 C 56.03125 282.835938 56.789062 283.597656 57.722656 283.597656 C 58.660156 283.597656 59.417969 282.835938 59.417969 281.902344 C 59.417969 280.964844 58.660156 280.207031 57.722656 280.207031 Z M 57.722656 280.207031 " clip-rule="nonzero"/></clipPath><clipPath id="e085d84382"><path d="M 305.066406 280.207031 L 308.453125 280.207031 L 308.453125 283.597656 L 305.066406 283.597656 Z M 305.066406 280.207031 " clip-rule="nonzero"/></clipPath><clipPath id="cf312b6b93"><path d="M 306.761719 280.207031 C 305.824219 280.207031 305.066406 280.964844 305.066406 281.902344 C 305.066406 282.835938 305.824219 283.597656 306.761719 283.597656 C 307.695312 283.597656 308.453125 282.835938 308.453125 281.902344 C 308.453125 280.964844 307.695312 280.207031 306.761719 280.207031 Z M 306.761719 280.207031 " clip-rule="nonzero"/></clipPath></defs><rect x="-37.5" fill="url(#174ed9596a)" width="450" y="-37.499999" height="449.999989"/><path fill="#ffd700" d="M 243.667969 96.328125 C 243.636719 96.328125 243.585938 96.328125 243.550781 96.308594 L 223.34375 93.007812 C 222.9375 92.9375 222.648438 92.550781 222.714844 92.144531 C 222.785156 91.734375 223.191406 91.464844 223.578125 91.515625 L 243.789062 94.820312 C 244.195312 94.886719 244.480469 95.277344 244.414062 95.683594 C 244.347656 96.074219 244.023438 96.328125 243.667969 96.328125 Z M 243.667969 96.328125 " fill-opacity="1" fill-rule="nonzero"/><path fill="#ffd700" d="M 233.03125 104 C 232.945312 104 232.84375 103.984375 232.761719 103.949219 L 221.816406 99.765625 C 221.429688 99.613281 221.226562 99.171875 221.378906 98.78125 C 221.53125 98.394531 221.953125 98.207031 222.359375 98.34375 L 233.300781 102.527344 C 233.691406 102.679688 233.894531 103.117188 233.742188 103.507812 C 233.625 103.8125 233.335938 104 233.03125 104 Z M 233.03125 104 " fill-opacity="1" fill-rule="nonzero"/><path fill="#ffd700" d="M 219.292969 121.414062 C 219.109375 121.414062 218.921875 121.34375 218.769531 121.191406 L 208.234375 110.996094 C 207.929688 110.707031 207.929688 110.234375 208.214844 109.929688 C 208.503906 109.625 208.976562 109.625 209.28125 109.910156 L 219.820312 120.109375 C 220.125 120.398438 220.125 120.871094 219.835938 121.175781 C 219.699219 121.328125 219.496094 121.414062 219.292969 121.414062 Z M 219.292969 121.414062 " fill-opacity="1" fill-rule="nonzero"/><path fill="#ffd700" d="M 244.941406 125.800781 C 244.804688 125.800781 244.652344 125.765625 244.53125 125.683594 L 215.789062 107.335938 C 215.433594 107.117188 215.332031 106.640625 215.550781 106.285156 C 215.769531 105.929688 216.246094 105.828125 216.601562 106.050781 L 245.347656 124.394531 C 245.703125 124.613281 245.804688 125.089844 245.582031 125.445312 C 245.449219 125.664062 245.195312 125.800781 244.941406 125.800781 Z M 244.941406 125.800781 " fill-opacity="1" fill-rule="nonzero"/><path fill="#ffd700" d="M 218.871094 136.25 C 218.632812 136.25 218.394531 136.132812 218.261719 135.929688 L 201.085938 112.027344 C 200.847656 111.691406 200.914062 111.214844 201.253906 110.980469 C 201.59375 110.742188 202.066406 110.808594 202.304688 111.148438 L 219.480469 135.066406 C 219.71875 135.40625 219.648438 135.878906 219.3125 136.117188 C 219.175781 136.21875 219.023438 136.25 218.871094 136.25 Z M 218.871094 136.25 " fill-opacity="1" fill-rule="nonzero"/><path fill="#ffd700" d="M 200.40625 125.15625 C 200.117188 125.15625 199.847656 124.988281 199.710938 124.714844 L 192.902344 109.503906 C 192.734375 109.117188 192.902344 108.675781 193.292969 108.503906 C 193.664062 108.335938 194.121094 108.503906 194.292969 108.894531 L 201.101562 124.105469 C 201.269531 124.496094 201.101562 124.9375 200.710938 125.105469 C 200.609375 125.140625 200.507812 125.15625 200.40625 125.15625 Z M 200.40625 125.15625 " fill-opacity="1" fill-rule="nonzero"/><path fill="#ffd700" d="M 197.527344 151.546875 C 197.1875 151.546875 196.867188 151.308594 196.78125 150.953125 L 190.648438 123.207031 C 190.566406 122.800781 190.820312 122.394531 191.226562 122.3125 C 191.632812 122.226562 192.039062 122.480469 192.125 122.886719 L 198.253906 150.632812 C 198.339844 151.039062 198.085938 151.445312 197.679688 151.53125 C 197.628906 151.546875 197.578125 151.546875 197.527344 151.546875 Z M 197.527344 151.546875 " fill-opacity="1" fill-rule="nonzero"/><path fill="#ffd700" d="M 173.117188 146.941406 C 173.085938 146.941406 173.050781 146.941406 173.015625 146.941406 C 172.609375 146.890625 172.324219 146.5 172.375 146.09375 L 175.355469 125.171875 C 175.40625 124.765625 175.792969 124.480469 176.203125 124.53125 C 176.609375 124.582031 176.894531 124.96875 176.84375 125.375 L 173.863281 146.296875 C 173.8125 146.667969 173.492188 146.941406 173.117188 146.941406 Z M 173.117188 146.941406 " fill-opacity="1" fill-rule="nonzero"/><path fill="#ffd700" d="M 167.917969 126.039062 C 167.832031 126.039062 167.730469 126.019531 167.648438 125.988281 C 167.257812 125.835938 167.054688 125.394531 167.207031 125.003906 L 174.050781 107.132812 C 174.203125 106.742188 174.625 106.558594 175.03125 106.691406 C 175.421875 106.84375 175.625 107.285156 175.472656 107.675781 L 168.628906 125.546875 C 168.511719 125.851562 168.222656 126.039062 167.917969 126.039062 Z M 167.917969 126.039062 " fill-opacity="1" fill-rule="nonzero"/><path fill="#ffd700" d="M 148.03125 122.582031 C 147.84375 122.582031 147.660156 122.515625 147.507812 122.363281 C 147.203125 122.074219 147.203125 121.597656 147.488281 121.292969 L 157.671875 110.777344 C 157.957031 110.46875 158.433594 110.46875 158.738281 110.757812 C 159.042969 111.046875 159.042969 111.519531 158.753906 111.824219 L 148.574219 122.34375 C 148.421875 122.496094 148.234375 122.582031 148.03125 122.582031 Z M 148.03125 122.582031 " fill-opacity="1" fill-rule="nonzero"/><path fill="#ffd700" d="M 143.644531 148.226562 C 143.507812 148.226562 143.355469 148.195312 143.238281 148.109375 C 142.882812 147.890625 142.78125 147.414062 143 147.058594 L 165.96875 111.0625 C 166.191406 110.707031 166.664062 110.605469 167.019531 110.828125 C 167.375 111.046875 167.476562 111.519531 167.257812 111.875 L 144.289062 147.890625 C 144.152344 148.109375 143.898438 148.226562 143.644531 148.226562 Z M 143.644531 148.226562 " fill-opacity="1" fill-rule="nonzero"/><path fill="#ffd700" d="M 133.195312 122.160156 C 132.957031 122.160156 132.71875 122.039062 132.582031 121.835938 C 132.347656 121.496094 132.414062 121.023438 132.753906 120.785156 L 151.46875 107.335938 C 151.808594 107.082031 152.285156 107.167969 152.519531 107.507812 C 152.757812 107.84375 152.691406 108.320312 152.351562 108.554688 L 133.632812 122.007812 C 133.5 122.109375 133.347656 122.160156 133.195312 122.160156 Z M 133.195312 122.160156 " fill-opacity="1" fill-rule="nonzero"/><path fill="#ffd700" d="M 133.398438 108.21875 C 133.109375 108.21875 132.835938 108.046875 132.703125 107.777344 C 132.53125 107.386719 132.703125 106.949219 133.09375 106.777344 L 145.507812 101.222656 C 145.878906 101.050781 146.339844 101.222656 146.507812 101.613281 C 146.675781 102 146.507812 102.441406 146.117188 102.609375 L 133.703125 108.167969 C 133.617188 108.199219 133.5 108.21875 133.398438 108.21875 Z M 133.398438 108.21875 " fill-opacity="1" fill-rule="nonzero"/><path fill="#ffd700" d="M 132.683594 87.195312 C 132.277344 87.195312 131.941406 86.875 131.921875 86.453125 C 131.921875 86.027344 132.246094 85.6875 132.667969 85.6875 L 143.628906 85.519531 C 144.066406 85.519531 144.390625 85.839844 144.390625 86.265625 C 144.390625 86.6875 144.066406 87.027344 143.644531 87.027344 L 132.683594 87.195312 C 132.703125 87.195312 132.703125 87.195312 132.683594 87.195312 Z M 132.683594 87.195312 " fill-opacity="1" fill-rule="nonzero"/><g clip-path="url(#8f272ca466)"><path fill="#ffd700" d="M 111.445312 102.238281 C 111.105469 102.238281 110.785156 102 110.699219 101.644531 C 110.613281 101.238281 110.867188 100.832031 111.273438 100.746094 L 142.796875 93.785156 C 143.203125 93.699219 143.609375 93.957031 143.695312 94.363281 C 143.78125 94.769531 143.527344 95.175781 143.121094 95.257812 L 111.597656 102.222656 C 111.546875 102.222656 111.496094 102.238281 111.445312 102.238281 Z M 111.445312 102.238281 " fill-opacity="1" fill-rule="nonzero"/></g><path fill="#ffd700" d="M 145.761719 80.199219 C 145.726562 80.199219 145.675781 80.199219 145.644531 80.183594 L 122.371094 76.390625 C 121.964844 76.320312 121.675781 75.933594 121.742188 75.527344 C 121.808594 75.117188 122.199219 74.847656 122.605469 74.898438 L 145.863281 78.710938 C 146.269531 78.777344 146.558594 79.167969 146.492188 79.574219 C 146.457031 79.945312 146.136719 80.199219 145.761719 80.199219 Z M 145.761719 80.199219 " fill-opacity="1" fill-rule="nonzero"/><path fill="#ffd700" d="M 151.519531 74.304688 C 151.4375 74.304688 151.335938 74.289062 151.25 74.253906 L 143.136719 71.15625 C 142.746094 71.003906 142.542969 70.5625 142.695312 70.171875 C 142.847656 69.785156 143.273438 69.597656 143.679688 69.734375 L 151.792969 72.832031 C 152.183594 72.984375 152.386719 73.425781 152.234375 73.816406 C 152.113281 74.121094 151.828125 74.304688 151.519531 74.304688 Z M 151.519531 74.304688 " fill-opacity="1" fill-rule="nonzero"/><path fill="#ffd700" d="M 169.714844 73.441406 C 169.527344 73.441406 169.339844 73.375 169.1875 73.222656 L 166.546875 70.664062 C 166.242188 70.375 166.242188 69.902344 166.527344 69.597656 C 166.816406 69.292969 167.292969 69.292969 167.597656 69.578125 L 170.238281 72.136719 C 170.542969 72.425781 170.542969 72.898438 170.253906 73.203125 C 170.121094 73.359375 169.917969 73.441406 169.714844 73.441406 Z M 169.714844 73.441406 " fill-opacity="1" fill-rule="nonzero"/><path fill="#ffd700" d="M 167.089844 70.882812 C 166.902344 70.882812 166.714844 70.816406 166.5625 70.664062 L 146.339844 51.101562 C 146.03125 50.8125 146.03125 50.335938 146.320312 50.03125 C 146.609375 49.726562 147.082031 49.726562 147.386719 50.015625 L 167.613281 69.578125 C 167.917969 69.867188 167.917969 70.34375 167.628906 70.648438 C 167.476562 70.800781 167.273438 70.882812 167.089844 70.882812 Z M 167.089844 70.882812 " fill-opacity="1" fill-rule="nonzero"/><path fill="#ffd700" d="M 159.484375 71.359375 C 159.347656 71.359375 159.195312 71.324219 159.074219 71.238281 L 120.8125 46.8125 C 120.457031 46.59375 120.355469 46.121094 120.574219 45.765625 C 120.792969 45.410156 121.269531 45.304688 121.625 45.527344 L 159.90625 69.953125 C 160.261719 70.171875 160.363281 70.648438 160.144531 71.003906 C 159.992188 71.238281 159.738281 71.359375 159.484375 71.359375 Z M 159.484375 71.359375 " fill-opacity="1" fill-rule="nonzero"/><path fill="#ffd700" d="M 169.542969 67.460938 C 169.308594 67.460938 169.070312 67.34375 168.933594 67.140625 L 146.675781 36.160156 C 146.441406 35.820312 146.507812 35.347656 146.847656 35.109375 C 147.183594 34.855469 147.660156 34.941406 147.894531 35.277344 L 170.152344 66.261719 C 170.390625 66.597656 170.324219 67.074219 169.984375 67.308594 C 169.847656 67.410156 169.695312 67.460938 169.542969 67.460938 Z M 169.542969 67.460938 " fill-opacity="1" fill-rule="nonzero"/><path fill="#ffd700" d="M 171.882812 61.28125 C 171.59375 61.28125 171.324219 61.109375 171.1875 60.839844 L 165.054688 47.136719 C 164.886719 46.746094 165.054688 46.304688 165.445312 46.136719 C 165.835938 45.96875 166.273438 46.136719 166.445312 46.527344 L 172.578125 60.230469 C 172.746094 60.621094 172.578125 61.058594 172.1875 61.230469 C 172.101562 61.261719 171.984375 61.28125 171.882812 61.28125 Z M 171.882812 61.28125 " fill-opacity="1" fill-rule="nonzero"/><path fill="#ffd700" d="M 182.585938 56.128906 C 182.179688 56.128906 181.84375 55.808594 181.824219 55.386719 L 181.503906 35.226562 C 181.503906 34.804688 181.824219 34.464844 182.25 34.464844 C 182.621094 34.484375 183.011719 34.789062 183.011719 35.210938 L 183.332031 55.367188 C 183.347656 55.792969 183.011719 56.128906 182.585938 56.128906 Z M 182.585938 56.128906 " fill-opacity="1" fill-rule="nonzero"/><g clip-path="url(#a10cdf9e27)"><path fill="#ffd700" d="M 176.863281 58.417969 C 176.523438 58.417969 176.203125 58.179688 176.117188 57.824219 L 166.460938 14.140625 C 166.375 13.734375 166.632812 13.324219 167.039062 13.242188 C 167.445312 13.15625 167.851562 13.410156 167.933594 13.816406 L 177.589844 57.503906 C 177.675781 57.910156 177.421875 58.316406 177.015625 58.398438 C 176.980469 58.398438 176.914062 58.417969 176.863281 58.417969 Z M 176.863281 58.417969 " fill-opacity="1" fill-rule="nonzero"/></g><path fill="#ffd700" d="M 187.921875 57.128906 C 187.890625 57.128906 187.839844 57.128906 187.804688 57.113281 C 187.398438 57.046875 187.109375 56.65625 187.179688 56.25 L 192.308594 24.914062 C 192.378906 24.503906 192.785156 24.21875 193.175781 24.285156 C 193.582031 24.351562 193.867188 24.742188 193.800781 25.148438 L 188.667969 56.484375 C 188.601562 56.859375 188.277344 57.128906 187.921875 57.128906 Z M 187.921875 57.128906 " fill-opacity="1" fill-rule="nonzero"/><path fill="#ffd700" d="M 193.039062 60.296875 C 192.953125 60.296875 192.851562 60.28125 192.769531 60.246094 C 192.378906 60.09375 192.175781 59.652344 192.328125 59.265625 L 197.527344 45.664062 C 197.679688 45.273438 198.101562 45.085938 198.511719 45.222656 C 198.898438 45.375 199.101562 45.816406 198.949219 46.203125 L 193.75 59.804688 C 193.632812 60.109375 193.34375 60.296875 193.039062 60.296875 Z M 193.039062 60.296875 " fill-opacity="1" fill-rule="nonzero"/><path fill="#ffd700" d="M 196.003906 73 C 195.816406 73 195.628906 72.933594 195.476562 72.78125 C 195.171875 72.492188 195.171875 72.019531 195.460938 71.714844 L 217.582031 48.863281 C 217.871094 48.558594 218.34375 48.558594 218.648438 48.847656 C 218.957031 49.136719 218.957031 49.609375 218.667969 49.914062 L 196.546875 72.765625 C 196.410156 72.933594 196.207031 73 196.003906 73 Z M 196.003906 73 " fill-opacity="1" fill-rule="nonzero"/><path fill="#ffd700" d="M 196.445312 65.34375 C 196.308594 65.34375 196.15625 65.3125 196.035156 65.226562 C 195.679688 65.007812 195.578125 64.53125 195.800781 64.175781 L 221.867188 23.335938 C 222.089844 22.980469 222.5625 22.878906 222.917969 23.101562 C 223.273438 23.320312 223.375 23.792969 223.15625 24.148438 L 197.070312 65.007812 C 196.933594 65.226562 196.699219 65.34375 196.445312 65.34375 Z M 196.445312 65.34375 " fill-opacity="1" fill-rule="nonzero"/><path fill="#ffd700" d="M 204.945312 70.699219 C 204.710938 70.699219 204.472656 70.578125 204.335938 70.375 C 204.101562 70.039062 204.167969 69.5625 204.507812 69.324219 L 232.539062 49.203125 C 232.878906 48.964844 233.351562 49.03125 233.589844 49.371094 C 233.828125 49.710938 233.761719 50.183594 233.421875 50.421875 L 205.386719 70.5625 C 205.25 70.664062 205.097656 70.699219 204.945312 70.699219 Z M 204.945312 70.699219 " fill-opacity="1" fill-rule="nonzero"/><path fill="#ffd700" d="M 212.433594 73.253906 C 212.144531 73.253906 211.875 73.085938 211.738281 72.816406 C 211.570312 72.425781 211.738281 71.984375 212.128906 71.816406 L 221.5625 67.597656 C 221.9375 67.429688 222.394531 67.597656 222.5625 67.988281 C 222.734375 68.378906 222.5625 68.816406 222.171875 68.988281 L 212.738281 73.203125 C 212.636719 73.238281 212.535156 73.253906 212.433594 73.253906 Z M 212.433594 73.253906 " fill-opacity="1" fill-rule="nonzero"/><path fill="#ffd700" d="M 222.34375 85.722656 C 221.9375 85.722656 221.597656 85.402344 221.582031 84.976562 C 221.582031 84.554688 221.902344 84.214844 222.324219 84.214844 L 233.453125 84.027344 C 233.84375 84.046875 234.21875 84.351562 234.21875 84.773438 C 234.21875 85.199219 233.894531 85.535156 233.472656 85.535156 Z M 222.34375 85.722656 " fill-opacity="1" fill-rule="nonzero"/><g clip-path="url(#f6c251ba65)"><path fill="#ffd700" d="M 218.972656 78.386719 C 218.632812 78.386719 218.3125 78.152344 218.226562 77.796875 C 218.140625 77.390625 218.394531 76.980469 218.804688 76.898438 L 254.5625 69.003906 C 254.96875 68.917969 255.375 69.171875 255.457031 69.578125 C 255.542969 69.988281 255.289062 70.394531 254.882812 70.476562 L 219.125 78.371094 C 219.074219 78.386719 219.023438 78.386719 218.972656 78.386719 Z M 218.972656 78.386719 " fill-opacity="1" fill-rule="nonzero"/></g><g clip-path="url(#619d1ed121)"><path fill="#ffd700" d="M 183.382812 266.546875 C 182.605469 266.546875 181.976562 265.917969 181.976562 265.140625 L 181.976562 192.132812 C 181.976562 191.355469 182.605469 190.726562 183.382812 190.726562 C 184.164062 190.726562 184.789062 191.355469 184.789062 192.132812 L 184.789062 265.140625 C 184.804688 265.902344 184.179688 266.546875 183.382812 266.546875 Z M 183.382812 266.546875 " fill-opacity="1" fill-rule="nonzero"/></g><path fill="#ffd700" d="M 183.382812 164.980469 C 182.605469 164.980469 181.976562 164.351562 181.976562 163.574219 L 181.976562 134 C 181.976562 133.21875 182.605469 132.59375 183.382812 132.59375 C 184.164062 132.59375 184.789062 133.21875 184.789062 134 L 184.789062 163.574219 C 184.804688 164.351562 184.179688 164.980469 183.382812 164.980469 Z M 183.382812 164.980469 " fill-opacity="1" fill-rule="nonzero"/><path fill="#ffd700" d="M 203.726562 243.441406 L 173.40625 243.441406 C 172.628906 243.441406 172 242.8125 172 242.035156 C 172 241.257812 172.628906 240.628906 173.40625 240.628906 L 203.726562 240.628906 C 204.507812 240.628906 205.132812 241.257812 205.132812 242.035156 C 205.132812 242.796875 204.507812 243.441406 203.726562 243.441406 Z M 203.726562 243.441406 " fill-opacity="1" fill-rule="nonzero"/><path fill="#ffd700" d="M 200.695312 234.175781 L 183.382812 234.175781 C 182.605469 234.175781 181.976562 233.546875 181.976562 232.769531 C 181.976562 231.992188 182.605469 231.363281 183.382812 231.363281 L 200.695312 231.363281 C 201.472656 231.363281 202.101562 231.992188 202.101562 232.769531 C 202.101562 233.546875 201.472656 234.175781 200.695312 234.175781 Z M 200.695312 234.175781 " fill-opacity="1" fill-rule="nonzero"/><path fill="#ffd700" d="M 200.695312 252.367188 L 183.382812 252.367188 C 182.605469 252.367188 181.976562 251.742188 181.976562 250.960938 C 181.976562 250.183594 182.605469 249.554688 183.382812 249.554688 L 200.695312 249.554688 C 201.472656 249.554688 202.101562 250.183594 202.101562 250.960938 C 202.101562 251.742188 201.472656 252.367188 200.695312 252.367188 Z M 200.695312 252.367188 " fill-opacity="1" fill-rule="nonzero"/><path fill="#ffd700" d="M 163.3125 112.996094 C 151.132812 112.996094 141.238281 103.085938 141.238281 90.921875 C 141.238281 78.761719 151.148438 68.851562 163.3125 68.851562 C 168.136719 68.851562 175.082031 72.136719 183.925781 78.625 C 184.550781 79.082031 184.6875 79.964844 184.230469 80.605469 C 183.773438 81.234375 182.890625 81.371094 182.25 80.914062 C 174.015625 74.882812 167.460938 71.699219 163.3125 71.699219 C 152.691406 71.699219 144.050781 80.335938 144.050781 90.957031 C 144.050781 101.578125 152.691406 110.214844 163.3125 110.214844 C 167.476562 110.214844 174.015625 107.03125 182.25 101 C 182.875 100.542969 183.757812 100.679688 184.230469 101.308594 C 184.6875 101.933594 184.550781 102.8125 183.925781 103.289062 C 175.066406 109.707031 168.136719 112.996094 163.3125 112.996094 Z M 163.3125 112.996094 " fill-opacity="1" fill-rule="nonzero"/><path fill="#ffd700" d="M 202.847656 112.996094 C 198.019531 112.996094 191.074219 109.707031 182.230469 103.238281 C 181.605469 102.78125 181.46875 101.898438 181.925781 101.253906 C 182.382812 100.628906 183.265625 100.492188 183.910156 100.949219 C 192.140625 106.980469 198.679688 110.164062 202.847656 110.164062 C 213.46875 110.164062 222.105469 101.527344 222.105469 90.90625 C 222.105469 80.285156 213.46875 71.648438 202.847656 71.648438 C 198.695312 71.648438 192.140625 74.832031 183.910156 80.863281 C 183.28125 81.320312 182.402344 81.183594 181.925781 80.554688 C 181.453125 79.929688 181.605469 79.050781 182.230469 78.574219 C 191.074219 72.105469 198 68.816406 202.828125 68.816406 C 215.007812 68.816406 224.902344 78.726562 224.902344 90.890625 C 224.902344 103.050781 215.023438 112.996094 202.847656 112.996094 Z M 202.847656 112.996094 " fill-opacity="1" fill-rule="nonzero"/><path fill="#ffd700" d="M 182.910156 103.863281 C 182.367188 103.863281 181.875 103.558594 181.640625 103.066406 C 181.097656 101.96875 168.375 75.964844 168.375 68.480469 C 168.375 60.46875 174.898438 53.960938 182.890625 53.960938 C 190.886719 53.960938 197.410156 60.484375 197.410156 68.480469 C 197.410156 75.964844 184.6875 101.96875 184.144531 103.066406 C 183.941406 103.558594 183.453125 103.863281 182.910156 103.863281 Z M 182.910156 56.792969 C 176.457031 56.792969 171.203125 62.042969 171.203125 68.496094 C 171.203125 73.59375 178.757812 90.5 182.910156 99.207031 C 187.058594 90.484375 194.613281 73.578125 194.613281 68.496094 C 194.613281 62.042969 189.363281 56.792969 182.910156 56.792969 Z M 182.910156 56.792969 " fill-opacity="1" fill-rule="nonzero"/><path fill="#ffd700" d="M 183.078125 135.40625 C 182.6875 135.40625 182.300781 135.234375 182.046875 134.949219 C 181.859375 134.742188 177.539062 130.019531 174.949219 125.460938 C 173.863281 123.988281 173.203125 122.261719 173.035156 120.464844 C 173 120.246094 172.984375 119.992188 172.984375 119.753906 C 172.984375 119.71875 172.984375 119.617188 172.984375 119.582031 C 172.984375 119.582031 172.984375 119.53125 172.984375 119.5 C 172.984375 119.261719 173 119.007812 173.035156 118.738281 C 173.203125 116.976562 173.863281 115.246094 174.929688 113.789062 C 177.523438 109.234375 181.84375 104.507812 182.027344 104.304688 C 182.570312 103.730469 183.570312 103.730469 184.113281 104.304688 C 184.296875 104.507812 188.617188 109.21875 191.210938 113.789062 C 192.292969 115.265625 192.953125 116.992188 193.125 118.789062 C 193.15625 119.007812 193.175781 119.261719 193.175781 119.5 C 193.175781 119.53125 193.175781 119.632812 193.175781 119.667969 C 193.175781 119.992188 193.15625 120.246094 193.125 120.5 C 192.953125 122.261719 192.292969 123.988281 191.210938 125.460938 C 188.617188 130.019531 184.296875 134.742188 184.113281 134.949219 C 183.859375 135.253906 183.46875 135.40625 183.078125 135.40625 Z M 183.078125 107.421875 C 181.640625 109.097656 179.046875 112.28125 177.351562 115.28125 C 177.320312 115.332031 177.285156 115.382812 177.25 115.433594 C 176.457031 116.5 175.964844 117.769531 175.828125 119.074219 C 175.8125 119.261719 175.792969 119.398438 175.792969 119.515625 C 175.792969 119.53125 175.792969 119.582031 175.792969 119.632812 C 175.792969 119.667969 175.792969 119.769531 175.792969 119.804688 C 175.792969 119.886719 175.8125 120.023438 175.828125 120.160156 C 175.964844 121.515625 176.457031 122.785156 177.25 123.851562 C 177.285156 123.902344 177.320312 123.953125 177.351562 124.003906 C 179.046875 127.003906 181.640625 130.1875 183.078125 131.863281 C 184.519531 130.1875 187.109375 127.003906 188.804688 124.003906 C 188.835938 123.953125 188.871094 123.902344 188.90625 123.851562 C 189.703125 122.785156 190.191406 121.515625 190.328125 120.210938 C 190.34375 120.042969 190.363281 119.90625 190.363281 119.769531 C 190.363281 119.753906 190.363281 119.703125 190.363281 119.632812 C 190.363281 119.601562 190.363281 119.515625 190.363281 119.480469 C 190.363281 119.363281 190.34375 119.226562 190.328125 119.09375 C 190.191406 117.738281 189.703125 116.484375 188.90625 115.417969 C 188.871094 115.367188 188.835938 115.316406 188.804688 115.265625 C 187.109375 112.28125 184.519531 109.082031 183.078125 107.421875 Z M 183.078125 107.421875 " fill-opacity="1" fill-rule="nonzero"/><path fill="#ffd700" d="M 183.382812 192.675781 C 183.09375 192.675781 182.808594 192.589844 182.570312 192.421875 C 182.382812 192.285156 182.097656 192.097656 181.722656 191.84375 C 177.234375 188.898438 163.597656 179.9375 163.597656 168.671875 C 163.597656 162.828125 168.359375 158.070312 174.203125 158.070312 C 178.132812 158.070312 181.554688 160.203125 183.382812 163.386719 C 185.210938 160.203125 188.652344 158.070312 192.5625 158.070312 C 198.410156 158.070312 203.167969 162.828125 203.167969 168.671875 C 203.167969 179.988281 189.550781 188.898438 185.078125 191.828125 C 184.6875 192.082031 184.382812 192.285156 184.195312 192.402344 C 183.960938 192.589844 183.671875 192.675781 183.382812 192.675781 Z M 174.203125 160.898438 C 169.917969 160.898438 166.425781 164.386719 166.425781 168.671875 C 166.425781 175.144531 172.101562 182.140625 183.265625 189.492188 C 183.296875 189.523438 183.347656 189.542969 183.382812 189.574219 C 183.433594 189.542969 183.484375 189.507812 183.535156 189.472656 C 194.699219 182.171875 200.355469 175.175781 200.355469 168.671875 C 200.355469 164.386719 196.867188 160.898438 192.582031 160.898438 C 188.296875 160.898438 184.804688 164.386719 184.804688 168.671875 C 184.804688 169.453125 184.179688 170.078125 183.402344 170.078125 C 182.621094 170.078125 181.996094 169.453125 181.996094 168.671875 C 181.976562 164.386719 178.488281 160.898438 174.203125 160.898438 Z M 174.203125 160.898438 " fill-opacity="1" fill-rule="nonzero"/><g clip-path="url(#7a3e48f93b)"><g clip-path="url(#4536731d21)"><path fill="#ffd700" d="M 56.03125 280.207031 L 59.417969 280.207031 L 59.417969 283.597656 L 56.03125 283.597656 Z M 56.03125 280.207031 " fill-opacity="1" fill-rule="nonzero"/></g></g><g fill="#ffd700" fill-opacity="1"><g transform="translate(67.270393, 290.151456)"><g><path d="M 17.3125 -16.140625 L 17.203125 -16.078125 C 16.503906 -16.710938 15.671875 -17.222656 14.703125 -17.609375 C 13.734375 -17.992188 12.671875 -18.1875 11.515625 -18.1875 C 10.390625 -18.1875 9.363281 -18.007812 8.4375 -17.65625 C 7.507812 -17.300781 6.707031 -16.789062 6.03125 -16.125 C 5.363281 -15.46875 4.84375 -14.65625 4.46875 -13.6875 C 4.101562 -12.71875 3.921875 -11.617188 3.921875 -10.390625 C 3.921875 -9.035156 4.097656 -7.769531 4.453125 -6.59375 C 4.804688 -5.425781 5.332031 -4.410156 6.03125 -3.546875 C 6.726562 -2.691406 7.601562 -2.015625 8.65625 -1.515625 C 9.707031 -1.023438 10.929688 -0.78125 12.328125 -0.78125 C 12.835938 -0.78125 13.34375 -0.832031 13.84375 -0.9375 C 14.351562 -1.050781 14.835938 -1.210938 15.296875 -1.421875 C 15.765625 -1.628906 16.203125 -1.878906 16.609375 -2.171875 C 17.023438 -2.472656 17.40625 -2.8125 17.75 -3.1875 L 17.890625 -3.09375 L 16.828125 -0.390625 C 16.160156 -0.128906 15.425781 0.0664062 14.625 0.203125 C 13.820312 0.335938 13.015625 0.40625 12.203125 0.40625 C 10.554688 0.40625 9.050781 0.171875 7.6875 -0.296875 C 6.332031 -0.773438 5.164062 -1.445312 4.1875 -2.3125 C 3.207031 -3.175781 2.445312 -4.21875 1.90625 -5.4375 C 1.363281 -6.65625 1.09375 -8.007812 1.09375 -9.5 C 1.09375 -10.34375 1.195312 -11.171875 1.40625 -11.984375 C 1.625 -12.796875 1.941406 -13.570312 2.359375 -14.3125 C 2.773438 -15.050781 3.289062 -15.726562 3.90625 -16.34375 C 4.519531 -16.957031 5.21875 -17.488281 6 -17.9375 C 6.78125 -18.394531 7.640625 -18.75 8.578125 -19 C 9.523438 -19.25 10.550781 -19.375 11.65625 -19.375 C 13.363281 -19.375 14.945312 -19.113281 16.40625 -18.59375 Z M 17.3125 -16.140625 "/></g></g></g><g fill="#ffd700" fill-opacity="1"><g transform="translate(86.265265, 290.151456)"><g><path d="M 15.53125 -13.84375 C 15.53125 -14.601562 15.519531 -15.265625 15.5 -15.828125 C 15.488281 -16.390625 15.460938 -16.875 15.421875 -17.28125 C 15.390625 -17.695312 15.351562 -18.039062 15.3125 -18.3125 C 15.269531 -18.582031 15.222656 -18.8125 15.171875 -19 L 15.171875 -19.0625 L 17.53125 -19.0625 L 17.53125 -19 C 17.476562 -18.8125 17.425781 -18.582031 17.375 -18.3125 C 17.320312 -18.039062 17.28125 -17.695312 17.25 -17.28125 C 17.226562 -16.875 17.203125 -16.390625 17.171875 -15.828125 C 17.148438 -15.265625 17.140625 -14.601562 17.140625 -13.84375 L 17.140625 -6.671875 C 17.140625 -5.398438 16.957031 -4.316406 16.59375 -3.421875 C 16.238281 -2.535156 15.734375 -1.804688 15.078125 -1.234375 C 14.429688 -0.660156 13.65625 -0.242188 12.75 0.015625 C 11.851562 0.273438 10.867188 0.40625 9.796875 0.40625 C 8.722656 0.40625 7.722656 0.28125 6.796875 0.03125 C 5.867188 -0.207031 5.0625 -0.601562 4.375 -1.15625 C 3.6875 -1.71875 3.144531 -2.4375 2.75 -3.3125 C 2.363281 -4.195312 2.171875 -5.269531 2.171875 -6.53125 L 2.171875 -13.84375 C 2.171875 -14.601562 2.160156 -15.265625 2.140625 -15.828125 C 2.128906 -16.390625 2.101562 -16.875 2.0625 -17.28125 C 2.03125 -17.695312 1.988281 -18.039062 1.9375 -18.3125 C 1.894531 -18.582031 1.847656 -18.8125 1.796875 -19 L 1.796875 -19.0625 L 4.984375 -19.0625 L 4.984375 -19 C 4.929688 -18.8125 4.878906 -18.582031 4.828125 -18.3125 C 4.785156 -18.039062 4.742188 -17.695312 4.703125 -17.28125 C 4.671875 -16.875 4.644531 -16.390625 4.625 -15.828125 C 4.601562 -15.265625 4.59375 -14.601562 4.59375 -13.84375 L 4.59375 -6.390625 C 4.59375 -5.335938 4.75 -4.46875 5.0625 -3.78125 C 5.382812 -3.09375 5.800781 -2.546875 6.3125 -2.140625 C 6.820312 -1.742188 7.40625 -1.460938 8.0625 -1.296875 C 8.71875 -1.140625 9.390625 -1.0625 10.078125 -1.0625 C 10.753906 -1.0625 11.421875 -1.140625 12.078125 -1.296875 C 12.734375 -1.460938 13.316406 -1.742188 13.828125 -2.140625 C 14.335938 -2.546875 14.75 -3.09375 15.0625 -3.78125 C 15.375 -4.46875 15.53125 -5.335938 15.53125 -6.390625 Z M 15.53125 -13.84375 "/></g></g></g><g fill="#ffd700" fill-opacity="1"><g transform="translate(106.164015, 290.151456)"><g><path d="M 4.703125 -1.171875 C 5.742188 -1.171875 6.703125 -1.210938 7.578125 -1.296875 C 8.460938 -1.390625 9.234375 -1.492188 9.890625 -1.609375 C 10.648438 -1.734375 11.34375 -1.878906 11.96875 -2.046875 L 11.59375 0.109375 C 11.488281 0.0976562 11.328125 0.0859375 11.109375 0.078125 C 10.898438 0.0664062 10.660156 0.0546875 10.390625 0.046875 C 10.128906 0.046875 9.851562 0.0390625 9.5625 0.03125 C 9.28125 0.03125 9.007812 0.0234375 8.75 0.015625 C 8.5 0.015625 8.273438 0.0078125 8.078125 0 C 7.878906 0 7.734375 0 7.640625 0 L 1.90625 0 L 1.90625 -0.046875 C 1.957031 -0.234375 2.003906 -0.460938 2.046875 -0.734375 C 2.097656 -1.015625 2.140625 -1.359375 2.171875 -1.765625 C 2.210938 -2.171875 2.238281 -2.65625 2.25 -3.21875 C 2.269531 -3.78125 2.28125 -4.441406 2.28125 -5.203125 L 2.28125 -13.84375 C 2.28125 -14.601562 2.269531 -15.265625 2.25 -15.828125 C 2.238281 -16.390625 2.210938 -16.875 2.171875 -17.28125 C 2.140625 -17.695312 2.097656 -18.039062 2.046875 -18.3125 C 2.003906 -18.582031 1.957031 -18.8125 1.90625 -19 L 1.90625 -19.0625 L 5.09375 -19.0625 L 5.09375 -19 C 5.039062 -18.8125 4.988281 -18.582031 4.9375 -18.3125 C 4.882812 -18.039062 4.84375 -17.695312 4.8125 -17.28125 C 4.78125 -16.875 4.753906 -16.390625 4.734375 -15.828125 C 4.710938 -15.265625 4.703125 -14.601562 4.703125 -13.84375 Z M 4.703125 -1.171875 "/></g></g></g><g fill="#ffd700" fill-opacity="1"><g transform="translate(119.257099, 290.151456)"><g><path d="M 6.90625 -17.890625 C 5.863281 -17.890625 4.921875 -17.84375 4.078125 -17.75 C 3.234375 -17.65625 2.507812 -17.554688 1.90625 -17.453125 C 1.195312 -17.316406 0.5625 -17.171875 0 -17.015625 L 0.390625 -19.171875 C 0.492188 -19.160156 0.648438 -19.148438 0.859375 -19.140625 C 1.078125 -19.128906 1.316406 -19.117188 1.578125 -19.109375 C 1.835938 -19.097656 2.109375 -19.085938 2.390625 -19.078125 C 2.679688 -19.078125 2.957031 -19.078125 3.21875 -19.078125 C 3.476562 -19.078125 3.707031 -19.070312 3.90625 -19.0625 C 4.101562 -19.0625 4.242188 -19.0625 4.328125 -19.0625 L 11.921875 -19.0625 C 12.003906 -19.0625 12.144531 -19.0625 12.34375 -19.0625 C 12.550781 -19.070312 12.78125 -19.078125 13.03125 -19.078125 C 13.289062 -19.078125 13.5625 -19.078125 13.84375 -19.078125 C 14.132812 -19.085938 14.410156 -19.097656 14.671875 -19.109375 C 14.941406 -19.117188 15.179688 -19.128906 15.390625 -19.140625 C 15.597656 -19.148438 15.757812 -19.160156 15.875 -19.171875 L 16.25 -17.015625 C 15.6875 -17.171875 15.050781 -17.316406 14.34375 -17.453125 C 13.726562 -17.554688 13 -17.65625 12.15625 -17.75 C 11.3125 -17.84375 10.367188 -17.890625 9.328125 -17.890625 L 9.328125 -5.203125 C 9.328125 -4.441406 9.335938 -3.78125 9.359375 -3.21875 C 9.378906 -2.65625 9.40625 -2.171875 9.4375 -1.765625 C 9.46875 -1.359375 9.507812 -1.015625 9.5625 -0.734375 C 9.613281 -0.460938 9.664062 -0.234375 9.71875 -0.046875 L 9.71875 0 L 6.53125 0 L 6.53125 -0.046875 C 6.59375 -0.234375 6.644531 -0.460938 6.6875 -0.734375 C 6.726562 -1.015625 6.765625 -1.359375 6.796875 -1.765625 C 6.835938 -2.171875 6.863281 -2.65625 6.875 -3.21875 C 6.894531 -3.78125 6.90625 -4.441406 6.90625 -5.203125 Z M 6.90625 -17.890625 "/></g></g></g><g fill="#ffd700" fill-opacity="1"><g transform="translate(136.085332, 290.151456)"><g><path d="M 15.53125 -13.84375 C 15.53125 -14.601562 15.519531 -15.265625 15.5 -15.828125 C 15.488281 -16.390625 15.460938 -16.875 15.421875 -17.28125 C 15.390625 -17.695312 15.351562 -18.039062 15.3125 -18.3125 C 15.269531 -18.582031 15.222656 -18.8125 15.171875 -19 L 15.171875 -19.0625 L 17.53125 -19.0625 L 17.53125 -19 C 17.476562 -18.8125 17.425781 -18.582031 17.375 -18.3125 C 17.320312 -18.039062 17.28125 -17.695312 17.25 -17.28125 C 17.226562 -16.875 17.203125 -16.390625 17.171875 -15.828125 C 17.148438 -15.265625 17.140625 -14.601562 17.140625 -13.84375 L 17.140625 -6.671875 C 17.140625 -5.398438 16.957031 -4.316406 16.59375 -3.421875 C 16.238281 -2.535156 15.734375 -1.804688 15.078125 -1.234375 C 14.429688 -0.660156 13.65625 -0.242188 12.75 0.015625 C 11.851562 0.273438 10.867188 0.40625 9.796875 0.40625 C 8.722656 0.40625 7.722656 0.28125 6.796875 0.03125 C 5.867188 -0.207031 5.0625 -0.601562 4.375 -1.15625 C 3.6875 -1.71875 3.144531 -2.4375 2.75 -3.3125 C 2.363281 -4.195312 2.171875 -5.269531 2.171875 -6.53125 L 2.171875 -13.84375 C 2.171875 -14.601562 2.160156 -15.265625 2.140625 -15.828125 C 2.128906 -16.390625 2.101562 -16.875 2.0625 -17.28125 C 2.03125 -17.695312 1.988281 -18.039062 1.9375 -18.3125 C 1.894531 -18.582031 1.847656 -18.8125 1.796875 -19 L 1.796875 -19.0625 L 4.984375 -19.0625 L 4.984375 -19 C 4.929688 -18.8125 4.878906 -18.582031 4.828125 -18.3125 C 4.785156 -18.039062 4.742188 -17.695312 4.703125 -17.28125 C 4.671875 -16.875 4.644531 -16.390625 4.625 -15.828125 C 4.601562 -15.265625 4.59375 -14.601562 4.59375 -13.84375 L 4.59375 -6.390625 C 4.59375 -5.335938 4.75 -4.46875 5.0625 -3.78125 C 5.382812 -3.09375 5.800781 -2.546875 6.3125 -2.140625 C 6.820312 -1.742188 7.40625 -1.460938 8.0625 -1.296875 C 8.71875 -1.140625 9.390625 -1.0625 10.078125 -1.0625 C 10.753906 -1.0625 11.421875 -1.140625 12.078125 -1.296875 C 12.734375 -1.460938 13.316406 -1.742188 13.828125 -2.140625 C 14.335938 -2.546875 14.75 -3.09375 15.0625 -3.78125 C 15.375 -4.46875 15.53125 -5.335938 15.53125 -6.390625 Z M 15.53125 -13.84375 "/></g></g></g><g fill="#ffd700" fill-opacity="1"><g transform="translate(155.984083, 290.151456)"><g><path d="M 4.703125 -5.203125 C 4.703125 -4.441406 4.710938 -3.78125 4.734375 -3.21875 C 4.753906 -2.65625 4.78125 -2.171875 4.8125 -1.765625 C 4.84375 -1.359375 4.882812 -1.015625 4.9375 -0.734375 C 4.988281 -0.460938 5.039062 -0.234375 5.09375 -0.046875 L 5.09375 0 L 1.90625 0 L 1.90625 -0.046875 C 1.957031 -0.234375 2.003906 -0.460938 2.046875 -0.734375 C 2.097656 -1.015625 2.140625 -1.359375 2.171875 -1.765625 C 2.203125 -2.171875 2.226562 -2.648438 2.25 -3.203125 C 2.269531 -3.765625 2.28125 -4.429688 2.28125 -5.203125 L 2.28125 -13.84375 C 2.28125 -14.601562 2.269531 -15.265625 2.25 -15.828125 C 2.226562 -16.390625 2.203125 -16.875 2.171875 -17.28125 C 2.140625 -17.6875 2.097656 -18.023438 2.046875 -18.296875 C 2.003906 -18.578125 1.957031 -18.8125 1.90625 -19 L 1.90625 -19.0625 L 2.453125 -19 C 2.628906 -18.988281 2.816406 -18.976562 3.015625 -18.96875 C 3.222656 -18.96875 3.441406 -18.96875 3.671875 -18.96875 C 4.015625 -18.96875 4.476562 -19.007812 5.0625 -19.09375 C 5.65625 -19.175781 6.410156 -19.21875 7.328125 -19.21875 C 8.171875 -19.21875 8.953125 -19.101562 9.671875 -18.875 C 10.398438 -18.644531 11.03125 -18.304688 11.5625 -17.859375 C 12.09375 -17.421875 12.503906 -16.878906 12.796875 -16.234375 C 13.097656 -15.585938 13.25 -14.859375 13.25 -14.046875 C 13.25 -13.410156 13.164062 -12.816406 13 -12.265625 C 12.84375 -11.722656 12.613281 -11.226562 12.3125 -10.78125 C 12.019531 -10.34375 11.664062 -9.953125 11.25 -9.609375 C 10.832031 -9.273438 10.363281 -8.992188 9.84375 -8.765625 L 14.515625 -2.203125 C 14.742188 -1.878906 14.957031 -1.597656 15.15625 -1.359375 C 15.351562 -1.117188 15.539062 -0.910156 15.71875 -0.734375 C 15.90625 -0.566406 16.082031 -0.425781 16.25 -0.3125 C 16.414062 -0.195312 16.585938 -0.109375 16.765625 -0.046875 L 16.765625 0 L 12.9375 0 C 12.90625 -0.164062 12.816406 -0.390625 12.671875 -0.671875 C 12.523438 -0.953125 12.351562 -1.226562 12.15625 -1.5 L 7.453125 -8.140625 C 7.253906 -8.117188 7.050781 -8.097656 6.84375 -8.078125 C 6.632812 -8.066406 6.425781 -8.0625 6.21875 -8.0625 C 5.96875 -8.0625 5.71875 -8.070312 5.46875 -8.09375 C 5.21875 -8.113281 4.960938 -8.144531 4.703125 -8.1875 Z M 4.703125 -9.21875 C 4.941406 -9.164062 5.1875 -9.128906 5.4375 -9.109375 C 5.6875 -9.085938 5.925781 -9.078125 6.15625 -9.078125 C 6.820312 -9.078125 7.425781 -9.175781 7.96875 -9.375 C 8.519531 -9.570312 8.988281 -9.875 9.375 -10.28125 C 9.757812 -10.6875 10.054688 -11.191406 10.265625 -11.796875 C 10.484375 -12.410156 10.59375 -13.125 10.59375 -13.9375 C 10.59375 -14.601562 10.515625 -15.207031 10.359375 -15.75 C 10.210938 -16.289062 9.988281 -16.75 9.6875 -17.125 C 9.394531 -17.5 9.019531 -17.789062 8.5625 -18 C 8.113281 -18.207031 7.585938 -18.3125 6.984375 -18.3125 C 6.378906 -18.3125 5.894531 -18.28125 5.53125 -18.21875 C 5.164062 -18.15625 4.890625 -18.085938 4.703125 -18.015625 Z M 4.703125 -9.21875 "/></g></g></g><g fill="#ffd700" fill-opacity="1"><g transform="translate(172.639504, 290.151456)"><g><path d="M 1.90625 -19.0625 C 3.007812 -19.0625 4.109375 -19.0625 5.203125 -19.0625 C 6.296875 -19.070312 7.296875 -19.082031 8.203125 -19.09375 C 9.117188 -19.113281 9.898438 -19.132812 10.546875 -19.15625 C 11.191406 -19.1875 11.632812 -19.222656 11.875 -19.265625 L 11.21875 -17.5 C 10.925781 -17.582031 10.582031 -17.65625 10.1875 -17.71875 C 9.851562 -17.769531 9.441406 -17.816406 8.953125 -17.859375 C 8.472656 -17.910156 7.921875 -17.9375 7.296875 -17.9375 C 7.085938 -17.9375 6.832031 -17.929688 6.53125 -17.921875 C 6.238281 -17.910156 5.953125 -17.894531 5.671875 -17.875 C 5.359375 -17.851562 5.035156 -17.835938 4.703125 -17.828125 L 4.703125 -10.5625 C 5.617188 -10.570312 6.441406 -10.597656 7.171875 -10.640625 C 7.910156 -10.691406 8.535156 -10.738281 9.046875 -10.78125 C 9.648438 -10.832031 10.179688 -10.894531 10.640625 -10.96875 L 10.234375 -9.03125 C 9.617188 -9.113281 8.992188 -9.191406 8.359375 -9.265625 C 7.804688 -9.328125 7.207031 -9.378906 6.5625 -9.421875 C 5.914062 -9.472656 5.296875 -9.5 4.703125 -9.5 L 4.703125 -1.171875 C 5.742188 -1.171875 6.703125 -1.210938 7.578125 -1.296875 C 8.460938 -1.390625 9.234375 -1.492188 9.890625 -1.609375 C 10.648438 -1.734375 11.34375 -1.878906 11.96875 -2.046875 L 11.59375 0.109375 C 11.488281 0.0976562 11.328125 0.0859375 11.109375 0.078125 C 10.898438 0.0664062 10.660156 0.0546875 10.390625 0.046875 C 10.128906 0.046875 9.851562 0.0390625 9.5625 0.03125 C 9.28125 0.03125 9.007812 0.0234375 8.75 0.015625 C 8.5 0.015625 8.273438 0.0078125 8.078125 0 C 7.878906 0 7.734375 0 7.640625 0 L 1.90625 0 L 1.90625 -0.046875 C 1.957031 -0.234375 2.003906 -0.460938 2.046875 -0.734375 C 2.097656 -1.015625 2.140625 -1.359375 2.171875 -1.765625 C 2.210938 -2.171875 2.238281 -2.65625 2.25 -3.21875 C 2.269531 -3.78125 2.28125 -4.441406 2.28125 -5.203125 L 2.28125 -13.84375 C 2.28125 -14.601562 2.269531 -15.265625 2.25 -15.828125 C 2.238281 -16.390625 2.210938 -16.875 2.171875 -17.28125 C 2.140625 -17.695312 2.097656 -18.039062 2.046875 -18.3125 C 2.003906 -18.582031 1.957031 -18.8125 1.90625 -19 Z M 1.90625 -19.0625 "/></g></g></g><g fill="#ffd700" fill-opacity="1"><g transform="translate(186.556709, 290.151456)"><g/></g></g><g fill="#ffd700" fill-opacity="1"><g transform="translate(195.289912, 290.151456)"><g><path d="M 1.90625 -19.0625 C 3.007812 -19.0625 4.109375 -19.0625 5.203125 -19.0625 C 6.296875 -19.070312 7.296875 -19.082031 8.203125 -19.09375 C 9.117188 -19.113281 9.898438 -19.132812 10.546875 -19.15625 C 11.191406 -19.1875 11.632812 -19.222656 11.875 -19.265625 L 11.21875 -17.5 C 10.925781 -17.582031 10.582031 -17.65625 10.1875 -17.71875 C 9.851562 -17.769531 9.441406 -17.816406 8.953125 -17.859375 C 8.472656 -17.910156 7.921875 -17.9375 7.296875 -17.9375 C 7.085938 -17.9375 6.832031 -17.929688 6.53125 -17.921875 C 6.238281 -17.910156 5.953125 -17.894531 5.671875 -17.875 C 5.359375 -17.851562 5.035156 -17.835938 4.703125 -17.828125 L 4.703125 -10.5625 C 5.617188 -10.570312 6.441406 -10.597656 7.171875 -10.640625 C 7.910156 -10.691406 8.535156 -10.738281 9.046875 -10.78125 C 9.648438 -10.832031 10.179688 -10.894531 10.640625 -10.96875 L 10.234375 -9.03125 C 9.617188 -9.113281 8.992188 -9.191406 8.359375 -9.265625 C 7.804688 -9.328125 7.207031 -9.378906 6.5625 -9.421875 C 5.914062 -9.472656 5.296875 -9.5 4.703125 -9.5 L 4.703125 -1.171875 C 5.742188 -1.171875 6.703125 -1.210938 7.578125 -1.296875 C 8.460938 -1.390625 9.234375 -1.492188 9.890625 -1.609375 C 10.648438 -1.734375 11.34375 -1.878906 11.96875 -2.046875 L 11.59375 0.109375 C 11.488281 0.0976562 11.328125 0.0859375 11.109375 0.078125 C 10.898438 0.0664062 10.660156 0.0546875 10.390625 0.046875 C 10.128906 0.046875 9.851562 0.0390625 9.5625 0.03125 C 9.28125 0.03125 9.007812 0.0234375 8.75 0.015625 C 8.5 0.015625 8.273438 0.0078125 8.078125 0 C 7.878906 0 7.734375 0 7.640625 0 L 1.90625 0 L 1.90625 -0.046875 C 1.957031 -0.234375 2.003906 -0.460938 2.046875 -0.734375 C 2.097656 -1.015625 2.140625 -1.359375 2.171875 -1.765625 C 2.210938 -2.171875 2.238281 -2.65625 2.25 -3.21875 C 2.269531 -3.78125 2.28125 -4.441406 2.28125 -5.203125 L 2.28125 -13.84375 C 2.28125 -14.601562 2.269531 -15.265625 2.25 -15.828125 C 2.238281 -16.390625 2.210938 -16.875 2.171875 -17.28125 C 2.140625 -17.695312 2.097656 -18.039062 2.046875 -18.3125 C 2.003906 -18.582031 1.957031 -18.8125 1.90625 -19 Z M 1.90625 -19.0625 "/></g></g></g><g fill="#ffd700" fill-opacity="1"><g transform="translate(209.207117, 290.151456)"><g><path d="M 9.015625 -8.328125 L 4.3125 -2.359375 C 4.132812 -2.148438 3.957031 -1.929688 3.78125 -1.703125 C 3.613281 -1.484375 3.460938 -1.265625 3.328125 -1.046875 C 3.203125 -0.835938 3.097656 -0.640625 3.015625 -0.453125 C 2.929688 -0.273438 2.890625 -0.125 2.890625 0 L 0.3125 0 L 0.3125 -0.046875 C 0.5 -0.222656 0.769531 -0.484375 1.125 -0.828125 C 1.488281 -1.171875 1.875 -1.601562 2.28125 -2.125 L 8.140625 -9.46875 L 2.125 -17.375 C 1.800781 -17.800781 1.476562 -18.15625 1.15625 -18.4375 C 0.832031 -18.726562 0.59375 -18.914062 0.4375 -19 L 0.4375 -19.0625 L 4.59375 -19.0625 C 4.59375 -18.957031 4.609375 -18.816406 4.640625 -18.640625 C 4.671875 -18.472656 4.726562 -18.273438 4.8125 -18.046875 C 4.90625 -17.828125 5.03125 -17.578125 5.1875 -17.296875 C 5.34375 -17.023438 5.546875 -16.726562 5.796875 -16.40625 L 9.640625 -11.375 L 13.875 -16.671875 C 14.03125 -16.867188 14.1875 -17.082031 14.34375 -17.3125 C 14.5 -17.539062 14.632812 -17.765625 14.75 -17.984375 C 14.875 -18.203125 14.972656 -18.40625 15.046875 -18.59375 C 15.128906 -18.78125 15.171875 -18.9375 15.171875 -19.0625 L 17.75 -19.0625 L 17.75 -19 C 17.65625 -18.9375 17.554688 -18.851562 17.453125 -18.75 C 17.347656 -18.65625 17.222656 -18.535156 17.078125 -18.390625 C 16.941406 -18.253906 16.789062 -18.085938 16.625 -17.890625 C 16.457031 -17.691406 16.269531 -17.460938 16.0625 -17.203125 L 10.515625 -10.203125 L 16.703125 -2.09375 C 17.128906 -1.550781 17.523438 -1.097656 17.890625 -0.734375 C 18.265625 -0.378906 18.535156 -0.148438 18.703125 -0.046875 L 18.703125 0 L 14.5625 0 C 14.5625 -0.207031 14.476562 -0.546875 14.3125 -1.015625 C 14.144531 -1.484375 13.832031 -2.023438 13.375 -2.640625 Z M 9.015625 -8.328125 "/></g></g></g><g fill="#ffd700" fill-opacity="1"><g transform="translate(228.786847, 290.151456)"><g><path d="M 4.703125 -8.4375 C 5.566406 -8.28125 6.359375 -8.265625 7.078125 -8.390625 C 7.804688 -8.515625 8.429688 -8.785156 8.953125 -9.203125 C 9.472656 -9.628906 9.875 -10.203125 10.15625 -10.921875 C 10.445312 -11.640625 10.59375 -12.519531 10.59375 -13.5625 C 10.59375 -14.269531 10.515625 -14.921875 10.359375 -15.515625 C 10.210938 -16.109375 9.988281 -16.609375 9.6875 -17.015625 C 9.394531 -17.429688 9.019531 -17.75 8.5625 -17.96875 C 8.113281 -18.195312 7.585938 -18.3125 6.984375 -18.3125 C 6.609375 -18.3125 6.273438 -18.296875 5.984375 -18.265625 C 5.703125 -18.234375 5.46875 -18.203125 5.28125 -18.171875 C 5.050781 -18.117188 4.859375 -18.066406 4.703125 -18.015625 Z M 1.90625 -19.0625 C 2.082031 -19.039062 2.265625 -19.019531 2.453125 -19 C 2.628906 -18.988281 2.816406 -18.976562 3.015625 -18.96875 C 3.222656 -18.96875 3.441406 -18.96875 3.671875 -18.96875 C 4.015625 -18.96875 4.476562 -19.007812 5.0625 -19.09375 C 5.65625 -19.175781 6.410156 -19.21875 7.328125 -19.21875 C 8.171875 -19.21875 8.953125 -19.09375 9.671875 -18.84375 C 10.398438 -18.59375 11.03125 -18.226562 11.5625 -17.75 C 12.09375 -17.269531 12.503906 -16.6875 12.796875 -16 C 13.097656 -15.320312 13.25 -14.539062 13.25 -13.65625 C 13.25 -12.476562 13.015625 -11.457031 12.546875 -10.59375 C 12.078125 -9.738281 11.445312 -9.046875 10.65625 -8.515625 C 9.863281 -7.984375 8.953125 -7.625 7.921875 -7.4375 C 6.898438 -7.25 5.828125 -7.238281 4.703125 -7.40625 L 4.703125 -5.203125 C 4.703125 -4.441406 4.710938 -3.78125 4.734375 -3.21875 C 4.753906 -2.65625 4.78125 -2.171875 4.8125 -1.765625 C 4.84375 -1.359375 4.882812 -1.015625 4.9375 -0.734375 C 4.988281 -0.460938 5.039062 -0.234375 5.09375 -0.046875 L 5.09375 0 L 1.90625 0 L 1.90625 -0.046875 C 1.957031 -0.234375 2.003906 -0.460938 2.046875 -0.734375 C 2.097656 -1.015625 2.140625 -1.359375 2.171875 -1.765625 C 2.210938 -2.171875 2.238281 -2.65625 2.25 -3.21875 C 2.269531 -3.78125 2.28125 -4.441406 2.28125 -5.203125 L 2.28125 -13.84375 C 2.28125 -14.601562 2.269531 -15.265625 2.25 -15.828125 C 2.238281 -16.390625 2.210938 -16.875 2.171875 -17.28125 C 2.140625 -17.695312 2.097656 -18.039062 2.046875 -18.3125 C 2.003906 -18.582031 1.957031 -18.8125 1.90625 -19 Z M 1.90625 -19.0625 "/></g></g></g><g fill="#ffd700" fill-opacity="1"><g transform="translate(243.302211, 290.151456)"><g><path d="M 4.703125 -5.203125 C 4.703125 -4.441406 4.710938 -3.78125 4.734375 -3.21875 C 4.753906 -2.65625 4.78125 -2.171875 4.8125 -1.765625 C 4.84375 -1.359375 4.882812 -1.015625 4.9375 -0.734375 C 4.988281 -0.460938 5.039062 -0.234375 5.09375 -0.046875 L 5.09375 0 L 1.90625 0 L 1.90625 -0.046875 C 1.957031 -0.234375 2.003906 -0.460938 2.046875 -0.734375 C 2.097656 -1.015625 2.140625 -1.359375 2.171875 -1.765625 C 2.203125 -2.171875 2.226562 -2.648438 2.25 -3.203125 C 2.269531 -3.765625 2.28125 -4.429688 2.28125 -5.203125 L 2.28125 -13.84375 C 2.28125 -14.601562 2.269531 -15.265625 2.25 -15.828125 C 2.226562 -16.390625 2.203125 -16.875 2.171875 -17.28125 C 2.140625 -17.6875 2.097656 -18.023438 2.046875 -18.296875 C 2.003906 -18.578125 1.957031 -18.8125 1.90625 -19 L 1.90625 -19.0625 L 2.453125 -19 C 2.628906 -18.988281 2.816406 -18.976562 3.015625 -18.96875 C 3.222656 -18.96875 3.441406 -18.96875 3.671875 -18.96875 C 4.015625 -18.96875 4.476562 -19.007812 5.0625 -19.09375 C 5.65625 -19.175781 6.410156 -19.21875 7.328125 -19.21875 C 8.171875 -19.21875 8.953125 -19.101562 9.671875 -18.875 C 10.398438 -18.644531 11.03125 -18.304688 11.5625 -17.859375 C 12.09375 -17.421875 12.503906 -16.878906 12.796875 -16.234375 C 13.097656 -15.585938 13.25 -14.859375 13.25 -14.046875 C 13.25 -13.410156 13.164062 -12.816406 13 -12.265625 C 12.84375 -11.722656 12.613281 -11.226562 12.3125 -10.78125 C 12.019531 -10.34375 11.664062 -9.953125 11.25 -9.609375 C 10.832031 -9.273438 10.363281 -8.992188 9.84375 -8.765625 L 14.515625 -2.203125 C 14.742188 -1.878906 14.957031 -1.597656 15.15625 -1.359375 C 15.351562 -1.117188 15.539062 -0.910156 15.71875 -0.734375 C 15.90625 -0.566406 16.082031 -0.425781 16.25 -0.3125 C 16.414062 -0.195312 16.585938 -0.109375 16.765625 -0.046875 L 16.765625 0 L 12.9375 0 C 12.90625 -0.164062 12.816406 -0.390625 12.671875 -0.671875 C 12.523438 -0.953125 12.351562 -1.226562 12.15625 -1.5 L 7.453125 -8.140625 C 7.253906 -8.117188 7.050781 -8.097656 6.84375 -8.078125 C 6.632812 -8.066406 6.425781 -8.0625 6.21875 -8.0625 C 5.96875 -8.0625 5.71875 -8.070312 5.46875 -8.09375 C 5.21875 -8.113281 4.960938 -8.144531 4.703125 -8.1875 Z M 4.703125 -9.21875 C 4.941406 -9.164062 5.1875 -9.128906 5.4375 -9.109375 C 5.6875 -9.085938 5.925781 -9.078125 6.15625 -9.078125 C 6.820312 -9.078125 7.425781 -9.175781 7.96875 -9.375 C 8.519531 -9.570312 8.988281 -9.875 9.375 -10.28125 C 9.757812 -10.6875 10.054688 -11.191406 10.265625 -11.796875 C 10.484375 -12.410156 10.59375 -13.125 10.59375 -13.9375 C 10.59375 -14.601562 10.515625 -15.207031 10.359375 -15.75 C 10.210938 -16.289062 9.988281 -16.75 9.6875 -17.125 C 9.394531 -17.5 9.019531 -17.789062 8.5625 -18 C 8.113281 -18.207031 7.585938 -18.3125 6.984375 -18.3125 C 6.378906 -18.3125 5.894531 -18.28125 5.53125 -18.21875 C 5.164062 -18.15625 4.890625 -18.085938 4.703125 -18.015625 Z M 4.703125 -9.21875 "/></g></g></g><g fill="#ffd700" fill-opacity="1"><g transform="translate(259.957644, 290.151456)"><g><path d="M 1.90625 -19.0625 C 3.007812 -19.0625 4.109375 -19.0625 5.203125 -19.0625 C 6.296875 -19.070312 7.296875 -19.082031 8.203125 -19.09375 C 9.117188 -19.113281 9.898438 -19.132812 10.546875 -19.15625 C 11.191406 -19.1875 11.632812 -19.222656 11.875 -19.265625 L 11.21875 -17.5 C 10.925781 -17.582031 10.582031 -17.65625 10.1875 -17.71875 C 9.851562 -17.769531 9.441406 -17.816406 8.953125 -17.859375 C 8.472656 -17.910156 7.921875 -17.9375 7.296875 -17.9375 C 7.085938 -17.9375 6.832031 -17.929688 6.53125 -17.921875 C 6.238281 -17.910156 5.953125 -17.894531 5.671875 -17.875 C 5.359375 -17.851562 5.035156 -17.835938 4.703125 -17.828125 L 4.703125 -10.5625 C 5.617188 -10.570312 6.441406 -10.597656 7.171875 -10.640625 C 7.910156 -10.691406 8.535156 -10.738281 9.046875 -10.78125 C 9.648438 -10.832031 10.179688 -10.894531 10.640625 -10.96875 L 10.234375 -9.03125 C 9.617188 -9.113281 8.992188 -9.191406 8.359375 -9.265625 C 7.804688 -9.328125 7.207031 -9.378906 6.5625 -9.421875 C 5.914062 -9.472656 5.296875 -9.5 4.703125 -9.5 L 4.703125 -1.171875 C 5.742188 -1.171875 6.703125 -1.210938 7.578125 -1.296875 C 8.460938 -1.390625 9.234375 -1.492188 9.890625 -1.609375 C 10.648438 -1.734375 11.34375 -1.878906 11.96875 -2.046875 L 11.59375 0.109375 C 11.488281 0.0976562 11.328125 0.0859375 11.109375 0.078125 C 10.898438 0.0664062 10.660156 0.0546875 10.390625 0.046875 C 10.128906 0.046875 9.851562 0.0390625 9.5625 0.03125 C 9.28125 0.03125 9.007812 0.0234375 8.75 0.015625 C 8.5 0.015625 8.273438 0.0078125 8.078125 0 C 7.878906 0 7.734375 0 7.640625 0 L 1.90625 0 L 1.90625 -0.046875 C 1.957031 -0.234375 2.003906 -0.460938 2.046875 -0.734375 C 2.097656 -1.015625 2.140625 -1.359375 2.171875 -1.765625 C 2.210938 -2.171875 2.238281 -2.65625 2.25 -3.21875 C 2.269531 -3.78125 2.28125 -4.441406 2.28125 -5.203125 L 2.28125 -13.84375 C 2.28125 -14.601562 2.269531 -15.265625 2.25 -15.828125 C 2.238281 -16.390625 2.210938 -16.875 2.171875 -17.28125 C 2.140625 -17.695312 2.097656 -18.039062 2.046875 -18.3125 C 2.003906 -18.582031 1.957031 -18.8125 1.90625 -19 Z M 1.90625 -19.0625 "/></g></g></g><g fill="#ffd700" fill-opacity="1"><g transform="translate(273.874849, 290.151456)"><g><path d="M 9.84375 -16.03125 L 9.5625 -16.03125 C 9.488281 -16.226562 9.375 -16.457031 9.21875 -16.71875 C 9.0625 -16.976562 8.859375 -17.21875 8.609375 -17.4375 C 8.359375 -17.664062 8.050781 -17.851562 7.6875 -18 C 7.332031 -18.15625 6.910156 -18.234375 6.421875 -18.234375 C 5.984375 -18.234375 5.597656 -18.164062 5.265625 -18.03125 C 4.929688 -17.894531 4.648438 -17.707031 4.421875 -17.46875 C 4.191406 -17.238281 4.019531 -16.957031 3.90625 -16.625 C 3.789062 -16.300781 3.734375 -15.9375 3.734375 -15.53125 C 3.734375 -14.894531 3.910156 -14.285156 4.265625 -13.703125 C 4.628906 -13.128906 5.082031 -12.554688 5.625 -11.984375 C 6.164062 -11.421875 6.75 -10.851562 7.375 -10.28125 C 8 -9.71875 8.582031 -9.128906 9.125 -8.515625 C 9.664062 -7.910156 10.113281 -7.269531 10.46875 -6.59375 C 10.832031 -5.925781 11.015625 -5.207031 11.015625 -4.4375 C 11.015625 -3.863281 10.914062 -3.285156 10.71875 -2.703125 C 10.519531 -2.117188 10.210938 -1.597656 9.796875 -1.140625 C 9.378906 -0.679688 8.84375 -0.304688 8.1875 -0.015625 C 7.53125 0.265625 6.75 0.40625 5.84375 0.40625 C 5.34375 0.40625 4.863281 0.359375 4.40625 0.265625 C 3.945312 0.179688 3.523438 0.0703125 3.140625 -0.0625 C 2.753906 -0.207031 2.40625 -0.359375 2.09375 -0.515625 C 1.789062 -0.671875 1.546875 -0.816406 1.359375 -0.953125 L 1.65625 -3.890625 L 2 -3.890625 C 2.09375 -3.472656 2.25 -3.078125 2.46875 -2.703125 C 2.6875 -2.328125 2.957031 -1.992188 3.28125 -1.703125 C 3.613281 -1.421875 3.988281 -1.191406 4.40625 -1.015625 C 4.820312 -0.835938 5.273438 -0.75 5.765625 -0.75 C 6.222656 -0.75 6.628906 -0.816406 6.984375 -0.953125 C 7.335938 -1.097656 7.644531 -1.289062 7.90625 -1.53125 C 8.164062 -1.78125 8.363281 -2.070312 8.5 -2.40625 C 8.632812 -2.738281 8.703125 -3.109375 8.703125 -3.515625 C 8.703125 -4.066406 8.597656 -4.578125 8.390625 -5.046875 C 8.191406 -5.523438 7.925781 -5.976562 7.59375 -6.40625 C 7.257812 -6.832031 6.878906 -7.242188 6.453125 -7.640625 C 6.035156 -8.035156 5.601562 -8.4375 5.15625 -8.84375 C 4.71875 -9.25 4.289062 -9.660156 3.875 -10.078125 C 3.457031 -10.503906 3.082031 -10.957031 2.75 -11.4375 C 2.414062 -11.925781 2.144531 -12.445312 1.9375 -13 C 1.738281 -13.550781 1.640625 -14.160156 1.640625 -14.828125 C 1.640625 -15.523438 1.773438 -16.15625 2.046875 -16.71875 C 2.316406 -17.28125 2.671875 -17.757812 3.109375 -18.15625 C 3.554688 -18.5625 4.0625 -18.867188 4.625 -19.078125 C 5.195312 -19.296875 5.785156 -19.40625 6.390625 -19.40625 C 6.835938 -19.40625 7.242188 -19.367188 7.609375 -19.296875 C 7.984375 -19.222656 8.316406 -19.140625 8.609375 -19.046875 C 8.910156 -18.953125 9.171875 -18.851562 9.390625 -18.75 C 9.617188 -18.65625 9.800781 -18.578125 9.9375 -18.515625 Z M 9.84375 -16.03125 "/></g></g></g><g fill="#ffd700" fill-opacity="1"><g transform="translate(286.835007, 290.151456)"><g><path d="M 9.84375 -16.03125 L 9.5625 -16.03125 C 9.488281 -16.226562 9.375 -16.457031 9.21875 -16.71875 C 9.0625 -16.976562 8.859375 -17.21875 8.609375 -17.4375 C 8.359375 -17.664062 8.050781 -17.851562 7.6875 -18 C 7.332031 -18.15625 6.910156 -18.234375 6.421875 -18.234375 C 5.984375 -18.234375 5.597656 -18.164062 5.265625 -18.03125 C 4.929688 -17.894531 4.648438 -17.707031 4.421875 -17.46875 C 4.191406 -17.238281 4.019531 -16.957031 3.90625 -16.625 C 3.789062 -16.300781 3.734375 -15.9375 3.734375 -15.53125 C 3.734375 -14.894531 3.910156 -14.285156 4.265625 -13.703125 C 4.628906 -13.128906 5.082031 -12.554688 5.625 -11.984375 C 6.164062 -11.421875 6.75 -10.851562 7.375 -10.28125 C 8 -9.71875 8.582031 -9.128906 9.125 -8.515625 C 9.664062 -7.910156 10.113281 -7.269531 10.46875 -6.59375 C 10.832031 -5.925781 11.015625 -5.207031 11.015625 -4.4375 C 11.015625 -3.863281 10.914062 -3.285156 10.71875 -2.703125 C 10.519531 -2.117188 10.210938 -1.597656 9.796875 -1.140625 C 9.378906 -0.679688 8.84375 -0.304688 8.1875 -0.015625 C 7.53125 0.265625 6.75 0.40625 5.84375 0.40625 C 5.34375 0.40625 4.863281 0.359375 4.40625 0.265625 C 3.945312 0.179688 3.523438 0.0703125 3.140625 -0.0625 C 2.753906 -0.207031 2.40625 -0.359375 2.09375 -0.515625 C 1.789062 -0.671875 1.546875 -0.816406 1.359375 -0.953125 L 1.65625 -3.890625 L 2 -3.890625 C 2.09375 -3.472656 2.25 -3.078125 2.46875 -2.703125 C 2.6875 -2.328125 2.957031 -1.992188 3.28125 -1.703125 C 3.613281 -1.421875 3.988281 -1.191406 4.40625 -1.015625 C 4.820312 -0.835938 5.273438 -0.75 5.765625 -0.75 C 6.222656 -0.75 6.628906 -0.816406 6.984375 -0.953125 C 7.335938 -1.097656 7.644531 -1.289062 7.90625 -1.53125 C 8.164062 -1.78125 8.363281 -2.070312 8.5 -2.40625 C 8.632812 -2.738281 8.703125 -3.109375 8.703125 -3.515625 C 8.703125 -4.066406 8.597656 -4.578125 8.390625 -5.046875 C 8.191406 -5.523438 7.925781 -5.976562 7.59375 -6.40625 C 7.257812 -6.832031 6.878906 -7.242188 6.453125 -7.640625 C 6.035156 -8.035156 5.601562 -8.4375 5.15625 -8.84375 C 4.71875 -9.25 4.289062 -9.660156 3.875 -10.078125 C 3.457031 -10.503906 3.082031 -10.957031 2.75 -11.4375 C 2.414062 -11.925781 2.144531 -12.445312 1.9375 -13 C 1.738281 -13.550781 1.640625 -14.160156 1.640625 -14.828125 C 1.640625 -15.523438 1.773438 -16.15625 2.046875 -16.71875 C 2.316406 -17.28125 2.671875 -17.757812 3.109375 -18.15625 C 3.554688 -18.5625 4.0625 -18.867188 4.625 -19.078125 C 5.195312 -19.296875 5.785156 -19.40625 6.390625 -19.40625 C 6.835938 -19.40625 7.242188 -19.367188 7.609375 -19.296875 C 7.984375 -19.222656 8.316406 -19.140625 8.609375 -19.046875 C 8.910156 -18.953125 9.171875 -18.851562 9.390625 -18.75 C 9.617188 -18.65625 9.800781 -18.578125 9.9375 -18.515625 Z M 9.84375 -16.03125 "/></g></g></g><g clip-path="url(#e085d84382)"><g clip-path="url(#cf312b6b93)"><path fill="#ffd700" d="M 305.066406 280.207031 L 308.453125 280.207031 L 308.453125 283.597656 L 305.066406 283.597656 Z M 305.066406 280.207031 " fill-opacity="1" fill-rule="nonzero"/></g></g></svg>